G75*
G70*
%OFA0B0*%
%FSLAX24Y24*%
%IPPOS*%
%LPD*%
%AMOC8*
5,1,8,0,0,1.08239X$1,22.5*
%
%ADD10R,0.0945X0.0945*%
%ADD11C,0.0945*%
%ADD12C,0.1266*%
%ADD13C,0.0594*%
%ADD14C,0.0740*%
%ADD15C,0.0515*%
%ADD16C,0.0240*%
%ADD17C,0.0500*%
%ADD18C,0.0400*%
%ADD19C,0.1000*%
%ADD20C,0.0560*%
%ADD21C,0.0160*%
%ADD22C,0.0360*%
%ADD23C,0.0100*%
D10*
X009351Y007630D03*
X011319Y009598D03*
X007382Y009598D03*
D11*
X007382Y007630D03*
X009351Y009598D03*
X011319Y007630D03*
D12*
X014601Y008630D03*
X018601Y008630D03*
D13*
X017601Y010630D03*
X016601Y010630D03*
X014773Y012263D03*
X013511Y012788D03*
X015891Y013706D03*
X017529Y013654D03*
X018710Y012263D03*
X019354Y013495D03*
X019360Y015093D03*
X019291Y016800D03*
X017529Y017591D03*
X015891Y017643D03*
X013399Y016956D03*
X011038Y019130D03*
X011038Y020130D03*
X011038Y021130D03*
X011038Y022130D03*
X011038Y023130D03*
X011038Y024130D03*
X011038Y025130D03*
X011038Y026130D03*
X007101Y026130D03*
X007101Y025130D03*
X007101Y024130D03*
X007101Y023130D03*
X007101Y022130D03*
X007101Y021130D03*
X007101Y020130D03*
X007101Y019130D03*
X009462Y016956D03*
X009574Y012788D03*
X022164Y019130D03*
X022164Y020130D03*
X022164Y021130D03*
X022164Y022130D03*
X022164Y023130D03*
X022164Y024130D03*
X022164Y025130D03*
X022164Y026130D03*
X026101Y026130D03*
X026101Y025130D03*
X026101Y024130D03*
X026101Y023130D03*
X026101Y022130D03*
X026101Y021130D03*
X026101Y020130D03*
X026101Y019130D03*
X023228Y016800D03*
X023297Y015093D03*
X023291Y013495D03*
D14*
X023101Y008630D03*
X026851Y008630D03*
X013051Y014330D03*
X013051Y015330D03*
X011551Y015330D03*
X011551Y014330D03*
X010051Y014330D03*
X010051Y015330D03*
X007351Y013380D03*
X006351Y013380D03*
X005351Y013380D03*
D15*
X005054Y019103D03*
X005054Y020103D03*
X005054Y021103D03*
X005054Y022103D03*
X005054Y023103D03*
X005054Y024103D03*
X005054Y025103D03*
X005054Y026103D03*
X002054Y026103D03*
X002054Y025103D03*
X002054Y024103D03*
X002054Y023103D03*
X002054Y022103D03*
X002054Y021103D03*
X002054Y020103D03*
X002054Y019103D03*
X028189Y019076D03*
X028189Y020076D03*
X028189Y021076D03*
X028189Y022076D03*
X028189Y023076D03*
X028189Y024076D03*
X028189Y025076D03*
X028189Y026076D03*
X031189Y026076D03*
X031189Y025076D03*
X031189Y024076D03*
X031189Y023076D03*
X031189Y022076D03*
X031189Y021076D03*
X031189Y020076D03*
X031189Y019076D03*
D16*
X028189Y019076D02*
X026154Y019076D01*
X026101Y019130D01*
X026154Y020076D02*
X026101Y020130D01*
X026154Y020076D02*
X028189Y020076D01*
X028189Y021076D02*
X026154Y021076D01*
X026101Y021130D01*
X026154Y022076D02*
X026101Y022130D01*
X026154Y022076D02*
X028189Y022076D01*
X028189Y023076D02*
X026154Y023076D01*
X026101Y023130D01*
X026101Y024130D02*
X028136Y024130D01*
X028189Y024076D01*
X028189Y025076D02*
X028136Y025130D01*
X026101Y025130D01*
X026101Y026130D02*
X028136Y026130D01*
X028189Y026076D01*
X011551Y015330D02*
X011301Y015330D01*
X010301Y014330D02*
X010051Y014330D01*
X010051Y015330D02*
X010051Y015830D01*
X009551Y016330D01*
X009551Y016867D01*
X009462Y016956D01*
X007101Y019130D02*
X005080Y019130D01*
X005054Y019103D01*
X005054Y020103D02*
X005080Y020130D01*
X007101Y020130D01*
X007101Y021130D02*
X005080Y021130D01*
X005054Y021103D01*
X005054Y022103D02*
X005080Y022130D01*
X007101Y022130D01*
X007101Y023130D02*
X005080Y023130D01*
X005054Y023103D01*
X005054Y024103D02*
X005080Y024130D01*
X007101Y024130D01*
X007101Y025130D02*
X005080Y025130D01*
X005054Y025103D01*
X005054Y026103D02*
X005080Y026130D01*
X007101Y026130D01*
X009616Y012830D02*
X009574Y012788D01*
D17*
X003151Y007280D02*
X002501Y007930D01*
X002785Y007930D01*
X003141Y008025D01*
X003460Y008209D01*
X003721Y008470D01*
X003905Y008789D01*
X006610Y008789D01*
X006655Y008744D02*
X006528Y008871D01*
X006460Y009036D01*
X006460Y010160D01*
X006528Y010325D01*
X006655Y010452D01*
X006820Y010521D01*
X007944Y010521D01*
X008110Y010452D01*
X008236Y010325D01*
X008305Y010160D01*
X008305Y009036D01*
X008236Y008871D01*
X008110Y008744D01*
X007944Y008676D01*
X006820Y008676D01*
X006655Y008744D01*
X006860Y008412D02*
X006600Y008152D01*
X006460Y007813D01*
X006460Y007446D01*
X006529Y007280D01*
X003151Y007280D01*
X003137Y007293D02*
X006523Y007293D01*
X006460Y007792D02*
X002639Y007792D01*
X003541Y008290D02*
X006738Y008290D01*
X006860Y008412D02*
X007199Y008552D01*
X007566Y008552D01*
X007905Y008412D01*
X008164Y008152D01*
X008305Y007813D01*
X008305Y007446D01*
X008236Y007280D01*
X008528Y007280D01*
X008528Y007629D01*
X009350Y007629D01*
X009350Y007630D01*
X008528Y007630D01*
X008528Y008136D01*
X008542Y008204D01*
X008568Y008268D01*
X008606Y008325D01*
X008655Y008374D01*
X008713Y008412D01*
X008776Y008439D01*
X008844Y008452D01*
X009351Y008452D01*
X009351Y007630D01*
X009351Y007630D01*
X010173Y007630D01*
X010173Y008136D01*
X010160Y008204D01*
X010133Y008268D01*
X010095Y008325D01*
X010046Y008374D01*
X009989Y008412D01*
X009925Y008439D01*
X009858Y008452D01*
X009351Y008452D01*
X009351Y007630D01*
X009351Y007629D01*
X010173Y007629D01*
X010173Y007280D01*
X010466Y007280D01*
X010397Y007446D01*
X010397Y007813D01*
X010537Y008152D01*
X010797Y008412D01*
X011136Y008552D01*
X011503Y008552D01*
X011842Y008412D01*
X012101Y008152D01*
X012242Y007813D01*
X012242Y007446D01*
X012173Y007280D01*
X030713Y007280D01*
X030769Y007335D01*
X031255Y007930D01*
X030916Y007930D01*
X030560Y008025D01*
X030241Y008209D01*
X029981Y008470D01*
X029796Y008789D01*
X029701Y009145D01*
X029701Y009514D01*
X029796Y009870D01*
X029981Y010189D01*
X030241Y010450D01*
X030560Y010634D01*
X030916Y010730D01*
X031285Y010730D01*
X031641Y010634D01*
X031960Y010450D01*
X032221Y010189D01*
X032405Y009870D01*
X032501Y009514D01*
X032501Y009452D01*
X032833Y009857D01*
X032833Y028152D01*
X032483Y028579D01*
X032405Y028289D01*
X032221Y027970D01*
X031960Y027709D01*
X031641Y027525D01*
X031285Y027430D01*
X030916Y027430D01*
X030560Y027525D01*
X030241Y027709D01*
X029981Y027970D01*
X029796Y028289D01*
X029701Y028645D01*
X029701Y029014D01*
X029796Y029370D01*
X029981Y029689D01*
X030241Y029950D01*
X030560Y030134D01*
X030916Y030230D01*
X031084Y030230D01*
X030713Y030600D01*
X002870Y030600D01*
X002500Y030230D01*
X002785Y030230D01*
X003141Y030134D01*
X003460Y029950D01*
X003721Y029689D01*
X003905Y029370D01*
X004001Y029014D01*
X004001Y028645D01*
X003905Y028289D01*
X003721Y027970D01*
X003460Y027709D01*
X003141Y027525D01*
X002785Y027430D01*
X002416Y027430D01*
X002060Y027525D01*
X001741Y027709D01*
X001481Y027970D01*
X001296Y028289D01*
X001201Y028645D01*
X001201Y028930D01*
X000751Y028480D01*
X000751Y009680D01*
X001201Y009230D01*
X001201Y009514D01*
X001296Y009870D01*
X001481Y010189D01*
X001741Y010450D01*
X002060Y010634D01*
X002416Y010730D01*
X002785Y010730D01*
X003141Y010634D01*
X003460Y010450D01*
X003721Y010189D01*
X003905Y009870D01*
X004001Y009514D01*
X004001Y009145D01*
X003905Y008789D01*
X004001Y009287D02*
X006460Y009287D01*
X006460Y009786D02*
X003928Y009786D01*
X003626Y010284D02*
X006511Y010284D01*
X008253Y010284D02*
X008733Y010284D01*
X008828Y010380D02*
X008569Y010121D01*
X008428Y009782D01*
X008428Y009415D01*
X008569Y009076D01*
X008828Y008816D01*
X009167Y008676D01*
X009534Y008676D01*
X009873Y008816D01*
X010133Y009076D01*
X010273Y009415D01*
X010273Y009782D01*
X010133Y010121D01*
X009873Y010380D01*
X009534Y010521D01*
X009167Y010521D01*
X008828Y010380D01*
X008430Y009786D02*
X008305Y009786D01*
X008305Y009287D02*
X008481Y009287D01*
X008154Y008789D02*
X008894Y008789D01*
X008583Y008290D02*
X008026Y008290D01*
X008305Y007792D02*
X008528Y007792D01*
X008528Y007293D02*
X008241Y007293D01*
X009351Y007792D02*
X009351Y007792D01*
X009351Y008290D02*
X009351Y008290D01*
X009807Y008789D02*
X010547Y008789D01*
X010592Y008744D02*
X010465Y008871D01*
X010397Y009036D01*
X010397Y010160D01*
X010465Y010325D01*
X010592Y010452D01*
X010757Y010521D01*
X011881Y010521D01*
X012047Y010452D01*
X012173Y010325D01*
X012242Y010160D01*
X012242Y009036D01*
X012173Y008871D01*
X012047Y008744D01*
X011881Y008676D01*
X010757Y008676D01*
X010592Y008744D01*
X010675Y008290D02*
X010118Y008290D01*
X010173Y007792D02*
X010397Y007792D01*
X010460Y007293D02*
X010173Y007293D01*
X011963Y008290D02*
X013570Y008290D01*
X013592Y008212D02*
X013734Y007965D01*
X013936Y007763D01*
X014183Y007620D01*
X014458Y007547D01*
X014743Y007547D01*
X015019Y007620D01*
X015266Y007763D01*
X015467Y007965D01*
X015610Y008212D01*
X015684Y008487D01*
X015684Y008772D01*
X015610Y009048D01*
X015467Y009295D01*
X015266Y009496D01*
X015019Y009639D01*
X014743Y009713D01*
X014458Y009713D01*
X014183Y009639D01*
X013936Y009496D01*
X013734Y009295D01*
X013592Y009048D01*
X013518Y008772D01*
X013518Y008487D01*
X013592Y008212D01*
X013907Y007792D02*
X012242Y007792D01*
X012178Y007293D02*
X030727Y007293D01*
X031143Y007792D02*
X019295Y007792D01*
X019266Y007763D02*
X019467Y007965D01*
X019610Y008212D01*
X019684Y008487D01*
X019684Y008772D01*
X019610Y009048D01*
X019467Y009295D01*
X019266Y009496D01*
X019019Y009639D01*
X018743Y009713D01*
X018458Y009713D01*
X018183Y009639D01*
X017936Y009496D01*
X017734Y009295D01*
X017592Y009048D01*
X017518Y008772D01*
X017518Y008487D01*
X017592Y008212D01*
X017734Y007965D01*
X017936Y007763D01*
X018183Y007620D01*
X018458Y007547D01*
X018743Y007547D01*
X019019Y007620D01*
X019266Y007763D01*
X019631Y008290D02*
X022354Y008290D01*
X022406Y008165D02*
X022636Y007934D01*
X022938Y007810D01*
X023264Y007810D01*
X023565Y007934D01*
X023796Y008165D01*
X023921Y008466D01*
X023921Y008793D01*
X023796Y009094D01*
X023565Y009325D01*
X023264Y009450D01*
X022938Y009450D01*
X022636Y009325D01*
X022406Y009094D01*
X022281Y008793D01*
X022281Y008466D01*
X022406Y008165D01*
X022281Y008789D02*
X019679Y008789D01*
X019472Y009287D02*
X022599Y009287D01*
X023603Y009287D02*
X026557Y009287D01*
X026532Y009277D02*
X026619Y009313D01*
X026710Y009337D01*
X026804Y009350D01*
X026851Y009350D01*
X026851Y008630D01*
X026851Y008630D01*
X027571Y008630D01*
X027571Y008677D01*
X027558Y008770D01*
X027534Y008862D01*
X027498Y008949D01*
X027451Y009030D01*
X027393Y009105D01*
X027326Y009172D01*
X027252Y009230D01*
X027170Y009277D01*
X027083Y009313D01*
X026992Y009337D01*
X026898Y009350D01*
X026851Y009350D01*
X026851Y008630D01*
X026851Y008629D01*
X026851Y007910D01*
X026898Y007910D01*
X026992Y007922D01*
X027083Y007946D01*
X027170Y007982D01*
X027252Y008030D01*
X027326Y008087D01*
X027393Y008154D01*
X027451Y008229D01*
X027498Y008310D01*
X027534Y008398D01*
X027558Y008489D01*
X027571Y008582D01*
X027571Y008629D01*
X026851Y008629D01*
X026851Y008629D01*
X026851Y007910D01*
X026804Y007910D01*
X026710Y007922D01*
X026619Y007946D01*
X026532Y007982D01*
X026450Y008030D01*
X026375Y008087D01*
X026308Y008154D01*
X026251Y008229D01*
X026204Y008310D01*
X026168Y008398D01*
X026143Y008489D01*
X026131Y008582D01*
X026131Y008629D01*
X026850Y008629D01*
X026850Y008630D01*
X026131Y008630D01*
X026131Y008677D01*
X026143Y008770D01*
X026168Y008862D01*
X026204Y008949D01*
X026251Y009030D01*
X026308Y009105D01*
X026375Y009172D01*
X026450Y009230D01*
X026532Y009277D01*
X026851Y009287D02*
X026851Y009287D01*
X027144Y009287D02*
X029701Y009287D01*
X029796Y008789D02*
X027554Y008789D01*
X027486Y008290D02*
X030160Y008290D01*
X029774Y009786D02*
X012242Y009786D01*
X012190Y010284D02*
X015935Y010284D01*
X015968Y010207D02*
X016178Y009996D01*
X016452Y009883D01*
X016749Y009883D01*
X017024Y009996D01*
X017171Y010144D01*
X017173Y010142D01*
X017241Y010091D01*
X017314Y010048D01*
X017392Y010016D01*
X017474Y009994D01*
X017558Y009983D01*
X017601Y009983D01*
X017643Y009983D01*
X017727Y009994D01*
X017809Y010016D01*
X017887Y010048D01*
X017961Y010091D01*
X018028Y010142D01*
X018088Y010202D01*
X018140Y010269D01*
X018182Y010343D01*
X018215Y010421D01*
X018237Y010503D01*
X018248Y010587D01*
X018248Y010629D01*
X017601Y010629D01*
X017601Y009983D01*
X017601Y010629D01*
X017601Y010629D01*
X017601Y010630D01*
X017601Y010630D01*
X017601Y011276D01*
X017643Y011276D01*
X017727Y011265D01*
X017809Y011243D01*
X017887Y011211D01*
X017961Y011169D01*
X018028Y011117D01*
X018088Y011057D01*
X018140Y010990D01*
X018182Y010916D01*
X018215Y010838D01*
X018237Y010756D01*
X018248Y010672D01*
X018248Y010630D01*
X017601Y010630D01*
X017601Y011276D01*
X017558Y011276D01*
X017474Y011265D01*
X017392Y011243D01*
X017314Y011211D01*
X017241Y011169D01*
X017173Y011117D01*
X017171Y011115D01*
X017024Y011263D01*
X016749Y011376D01*
X016452Y011376D01*
X016178Y011263D01*
X015968Y011053D01*
X015854Y010778D01*
X015854Y010481D01*
X015968Y010207D01*
X015856Y010783D02*
X000751Y010783D01*
X000751Y011282D02*
X016223Y011282D01*
X015769Y011679D02*
X015952Y011861D01*
X016442Y012352D01*
X016541Y012591D01*
X016541Y012849D01*
X016541Y013323D01*
X016621Y013516D01*
X016782Y013677D01*
X016782Y013506D01*
X016896Y013231D01*
X017106Y013021D01*
X017381Y012908D01*
X017678Y012908D01*
X017952Y013021D01*
X018162Y013231D01*
X018276Y013506D01*
X018276Y013803D01*
X018162Y014077D01*
X017952Y014288D01*
X017678Y014401D01*
X017492Y014401D01*
X018752Y015661D01*
X018851Y015900D01*
X018851Y016159D01*
X018851Y016184D01*
X018868Y016167D01*
X019142Y016053D01*
X019439Y016053D01*
X019714Y016167D01*
X019924Y016377D01*
X020038Y016651D01*
X020038Y016949D01*
X019924Y017223D01*
X019714Y017433D01*
X019579Y017489D01*
X020570Y018480D01*
X021470Y018480D01*
X021626Y018324D01*
X021975Y018180D01*
X022353Y018180D01*
X022702Y018324D01*
X022969Y018591D01*
X023114Y018941D01*
X023114Y019941D01*
X023114Y020941D01*
X023114Y021941D01*
X023114Y022941D01*
X023114Y023941D01*
X023114Y024941D01*
X023114Y026319D01*
X022969Y026668D01*
X022702Y026935D01*
X022353Y027080D01*
X021975Y027080D01*
X021626Y026935D01*
X021358Y026668D01*
X021214Y026319D01*
X021214Y024941D01*
X021214Y023941D01*
X021214Y022941D01*
X021214Y021941D01*
X021214Y020941D01*
X021214Y019941D01*
X021214Y019780D01*
X020430Y019780D01*
X020171Y019780D01*
X019933Y019681D01*
X018116Y017864D01*
X018110Y017878D01*
X018068Y017952D01*
X018016Y018019D01*
X017957Y018079D01*
X017889Y018130D01*
X017816Y018173D01*
X017737Y018205D01*
X017656Y018227D01*
X017572Y018238D01*
X017529Y018238D01*
X017487Y018238D01*
X017403Y018227D01*
X017321Y018205D01*
X017242Y018173D01*
X017169Y018130D01*
X017102Y018079D01*
X017042Y018019D01*
X016990Y017952D01*
X016948Y017878D01*
X016915Y017800D01*
X016893Y017718D01*
X016882Y017634D01*
X016882Y017592D01*
X017529Y017592D01*
X017529Y018238D01*
X017529Y017592D01*
X017529Y017592D01*
X017529Y017591D01*
X017529Y017591D01*
X017529Y016945D01*
X017487Y016945D01*
X017403Y016956D01*
X017321Y016978D01*
X017242Y017010D01*
X017169Y017052D01*
X017102Y017104D01*
X017042Y017164D01*
X016990Y017231D01*
X016948Y017305D01*
X016915Y017383D01*
X016893Y017465D01*
X016882Y017549D01*
X016882Y017591D01*
X017529Y017591D01*
X017529Y016945D01*
X017551Y016945D01*
X017551Y016299D01*
X016451Y015199D01*
X016451Y015259D01*
X016352Y015498D01*
X016169Y015681D01*
X014469Y017381D01*
X014230Y017480D01*
X013971Y017480D01*
X013931Y017480D01*
X013822Y017589D01*
X013548Y017702D01*
X013251Y017702D01*
X012976Y017589D01*
X012867Y017480D01*
X012370Y017480D01*
X011688Y018162D01*
X011688Y018436D01*
X011843Y018591D01*
X011988Y018941D01*
X011988Y019941D01*
X011988Y020941D01*
X011988Y021941D01*
X011988Y022941D01*
X011988Y023941D01*
X011988Y025319D01*
X011988Y026319D01*
X011843Y026668D01*
X011576Y026935D01*
X011227Y027080D01*
X010849Y027080D01*
X010500Y026935D01*
X010232Y026668D01*
X010088Y026319D01*
X010088Y025319D01*
X010088Y023941D01*
X010088Y022941D01*
X010088Y021941D01*
X010088Y020941D01*
X010088Y019941D01*
X010088Y018941D01*
X010232Y018591D01*
X010388Y018436D01*
X010388Y018022D01*
X010388Y017763D01*
X010487Y017524D01*
X011550Y016461D01*
X011733Y016279D01*
X011971Y016180D01*
X013144Y016180D01*
X013831Y016180D01*
X015151Y014860D01*
X015151Y013869D01*
X015144Y013854D01*
X015144Y013557D01*
X015241Y013323D01*
X015241Y012989D01*
X015162Y012910D01*
X014922Y013009D01*
X014625Y013009D01*
X014350Y012896D01*
X014152Y012697D01*
X014158Y012746D01*
X014158Y012788D01*
X013512Y012788D01*
X013512Y012788D01*
X013512Y012141D01*
X013554Y012141D01*
X013638Y012152D01*
X013720Y012174D01*
X013798Y012207D01*
X013872Y012249D01*
X013939Y012301D01*
X013999Y012361D01*
X014026Y012397D01*
X014026Y012114D01*
X014140Y011840D01*
X014350Y011630D01*
X014625Y011516D01*
X014922Y011516D01*
X015076Y011580D01*
X015530Y011580D01*
X015769Y011679D01*
X015871Y011780D02*
X018137Y011780D01*
X018077Y011840D02*
X018287Y011630D01*
X018562Y011516D01*
X018859Y011516D01*
X019133Y011630D01*
X019343Y011840D01*
X019457Y012114D01*
X019457Y012411D01*
X019343Y012686D01*
X019281Y012748D01*
X019502Y012748D01*
X019777Y012862D01*
X019987Y013072D01*
X020101Y013346D01*
X020101Y013644D01*
X019987Y013918D01*
X019777Y014128D01*
X019502Y014242D01*
X019205Y014242D01*
X018931Y014128D01*
X018721Y013918D01*
X018607Y013644D01*
X018607Y013346D01*
X018721Y013072D01*
X018783Y013009D01*
X018562Y013009D01*
X018287Y012896D01*
X018077Y012686D01*
X017963Y012411D01*
X017963Y012114D01*
X018077Y011840D01*
X017963Y012279D02*
X016369Y012279D01*
X016541Y012777D02*
X018169Y012777D01*
X018181Y013276D02*
X018636Y013276D01*
X018661Y013774D02*
X018276Y013774D01*
X017967Y014273D02*
X032833Y014273D01*
X032833Y014771D02*
X023972Y014771D01*
X023930Y014670D02*
X024044Y014945D01*
X024044Y015242D01*
X023930Y015516D01*
X023720Y015726D01*
X023445Y015840D01*
X023148Y015840D01*
X022874Y015726D01*
X022664Y015516D01*
X022550Y015242D01*
X022550Y014945D01*
X022664Y014670D01*
X022874Y014460D01*
X023148Y014347D01*
X023445Y014347D01*
X023720Y014460D01*
X023930Y014670D01*
X023714Y014128D02*
X023439Y014242D01*
X023142Y014242D01*
X022868Y014128D01*
X022658Y013918D01*
X022544Y013644D01*
X022544Y013346D01*
X022658Y013072D01*
X022868Y012862D01*
X023142Y012748D01*
X023439Y012748D01*
X023714Y012862D01*
X023924Y013072D01*
X024038Y013346D01*
X024038Y013644D01*
X023924Y013918D01*
X023714Y014128D01*
X023984Y013774D02*
X032833Y013774D01*
X032833Y013276D02*
X024008Y013276D01*
X023510Y012777D02*
X032833Y012777D01*
X032833Y012279D02*
X019457Y012279D01*
X019573Y012777D02*
X023072Y012777D01*
X022573Y013276D02*
X020071Y013276D01*
X020047Y013774D02*
X022598Y013774D01*
X022622Y014771D02*
X020035Y014771D01*
X019993Y014670D02*
X020107Y014945D01*
X020107Y015242D01*
X019993Y015516D01*
X019783Y015726D01*
X019508Y015840D01*
X019211Y015840D01*
X018937Y015726D01*
X018727Y015516D01*
X018613Y015242D01*
X018613Y014945D01*
X018727Y014670D01*
X018937Y014460D01*
X019211Y014347D01*
X019508Y014347D01*
X019783Y014460D01*
X019993Y014670D01*
X020095Y015270D02*
X022562Y015270D01*
X022975Y015768D02*
X019682Y015768D01*
X019814Y016267D02*
X022705Y016267D01*
X022805Y016167D02*
X023079Y016053D01*
X023376Y016053D01*
X023651Y016167D01*
X023861Y016377D01*
X023975Y016651D01*
X023975Y016949D01*
X023861Y017223D01*
X023651Y017433D01*
X023376Y017547D01*
X023079Y017547D01*
X022805Y017433D01*
X022595Y017223D01*
X022481Y016949D01*
X022481Y016651D01*
X022595Y016377D01*
X022805Y016167D01*
X022481Y016766D02*
X020038Y016766D01*
X019883Y017264D02*
X022636Y017264D01*
X022550Y018261D02*
X032833Y018261D01*
X032833Y018760D02*
X031710Y018760D01*
X031709Y018758D02*
X031752Y018843D01*
X031782Y018934D01*
X031797Y019029D01*
X031797Y019076D01*
X031190Y019076D01*
X031190Y019077D01*
X031797Y019077D01*
X031797Y019124D01*
X031782Y019219D01*
X031752Y019310D01*
X031709Y019395D01*
X031653Y019472D01*
X031585Y019540D01*
X031535Y019576D01*
X031585Y019613D01*
X031653Y019681D01*
X031709Y019758D01*
X031752Y019843D01*
X031782Y019934D01*
X031797Y020029D01*
X031797Y020076D01*
X031190Y020076D01*
X031190Y020077D01*
X031797Y020077D01*
X031797Y020124D01*
X031782Y020219D01*
X031752Y020310D01*
X031709Y020395D01*
X031653Y020472D01*
X031585Y020540D01*
X031535Y020576D01*
X031585Y020613D01*
X031653Y020681D01*
X031709Y020758D01*
X031752Y020843D01*
X031782Y020934D01*
X031797Y021029D01*
X031797Y021076D01*
X031190Y021076D01*
X031190Y021077D01*
X031797Y021077D01*
X031797Y021124D01*
X031782Y021219D01*
X031752Y021310D01*
X031709Y021395D01*
X031653Y021472D01*
X031585Y021540D01*
X031535Y021576D01*
X031585Y021613D01*
X031653Y021681D01*
X031709Y021758D01*
X031752Y021843D01*
X031782Y021934D01*
X031797Y022029D01*
X031797Y022076D01*
X031190Y022076D01*
X031190Y022077D01*
X031797Y022077D01*
X031797Y022124D01*
X031782Y022219D01*
X031752Y022310D01*
X031709Y022395D01*
X031653Y022472D01*
X031585Y022540D01*
X031535Y022576D01*
X031585Y022613D01*
X031653Y022681D01*
X031709Y022758D01*
X031752Y022843D01*
X031782Y022934D01*
X031797Y023029D01*
X031797Y023076D01*
X031190Y023076D01*
X031190Y023077D01*
X031797Y023077D01*
X031797Y023124D01*
X031782Y023219D01*
X031752Y023310D01*
X031709Y023395D01*
X031653Y023472D01*
X031585Y023540D01*
X031535Y023576D01*
X031585Y023613D01*
X031653Y023681D01*
X031709Y023758D01*
X031752Y023843D01*
X031782Y023934D01*
X031797Y024029D01*
X031797Y024076D01*
X031190Y024076D01*
X031190Y024077D01*
X031797Y024077D01*
X031797Y024124D01*
X031782Y024219D01*
X031752Y024310D01*
X031709Y024395D01*
X031653Y024472D01*
X031585Y024540D01*
X031535Y024576D01*
X031585Y024613D01*
X031653Y024681D01*
X031709Y024758D01*
X031752Y024843D01*
X031782Y024934D01*
X031797Y025029D01*
X031797Y025076D01*
X031190Y025076D01*
X031190Y025077D01*
X031797Y025077D01*
X031797Y025124D01*
X031782Y025219D01*
X031752Y025310D01*
X031709Y025395D01*
X031653Y025472D01*
X031585Y025540D01*
X031535Y025576D01*
X031585Y025613D01*
X031653Y025681D01*
X031709Y025758D01*
X031752Y025843D01*
X031782Y025934D01*
X031797Y026029D01*
X031797Y026076D01*
X031190Y026076D01*
X031190Y026077D01*
X031797Y026077D01*
X031797Y026124D01*
X031782Y026219D01*
X031752Y026310D01*
X031709Y026395D01*
X031653Y026472D01*
X031585Y026540D01*
X031508Y026596D01*
X031423Y026639D01*
X031332Y026669D01*
X031237Y026684D01*
X031190Y026684D01*
X031190Y026077D01*
X031189Y026077D01*
X031189Y026684D01*
X031142Y026684D01*
X031047Y026669D01*
X030956Y026639D01*
X030871Y026596D01*
X030794Y026540D01*
X030726Y026472D01*
X030670Y026395D01*
X030626Y026310D01*
X030597Y026219D01*
X030582Y026124D01*
X030582Y026077D01*
X031189Y026077D01*
X031189Y026076D01*
X031190Y026076D01*
X031190Y025684D01*
X031190Y025077D01*
X031189Y025077D01*
X031189Y025684D01*
X031189Y026076D01*
X030582Y026076D01*
X030582Y026029D01*
X030597Y025934D01*
X030626Y025843D01*
X030670Y025758D01*
X030726Y025681D01*
X030794Y025613D01*
X030844Y025576D01*
X030794Y025540D01*
X030726Y025472D01*
X030670Y025395D01*
X030626Y025310D01*
X030597Y025219D01*
X030582Y025124D01*
X030582Y025077D01*
X031189Y025077D01*
X031189Y025076D01*
X031190Y025076D01*
X031190Y024684D01*
X031190Y024077D01*
X031189Y024077D01*
X031189Y024684D01*
X031189Y025076D01*
X030582Y025076D01*
X030582Y025029D01*
X030597Y024934D01*
X030626Y024843D01*
X030670Y024758D01*
X030726Y024681D01*
X030794Y024613D01*
X030844Y024576D01*
X030794Y024540D01*
X030726Y024472D01*
X030670Y024395D01*
X030626Y024310D01*
X030597Y024219D01*
X030582Y024124D01*
X030582Y024077D01*
X031189Y024077D01*
X031189Y024076D01*
X031190Y024076D01*
X031190Y023684D01*
X031190Y023077D01*
X031189Y023077D01*
X031189Y023684D01*
X031189Y024076D01*
X030582Y024076D01*
X030582Y024029D01*
X030597Y023934D01*
X030626Y023843D01*
X030670Y023758D01*
X030726Y023681D01*
X030794Y023613D01*
X030844Y023576D01*
X030794Y023540D01*
X030726Y023472D01*
X030670Y023395D01*
X030626Y023310D01*
X030597Y023219D01*
X030582Y023124D01*
X030582Y023077D01*
X031189Y023077D01*
X031189Y023076D01*
X031190Y023076D01*
X031190Y022469D01*
X031190Y022077D01*
X031189Y022077D01*
X031189Y022684D01*
X031189Y023076D01*
X030582Y023076D01*
X030582Y023029D01*
X030597Y022934D01*
X030626Y022843D01*
X030670Y022758D01*
X030726Y022681D01*
X030794Y022613D01*
X030844Y022576D01*
X030794Y022540D01*
X030726Y022472D01*
X030670Y022395D01*
X030626Y022310D01*
X030597Y022219D01*
X030582Y022124D01*
X030582Y022077D01*
X031189Y022077D01*
X031189Y022076D01*
X031190Y022076D01*
X031190Y021684D01*
X031190Y021077D01*
X031189Y021077D01*
X031189Y021684D01*
X031189Y022076D01*
X030582Y022076D01*
X030582Y022029D01*
X030597Y021934D01*
X030626Y021843D01*
X030670Y021758D01*
X030726Y021681D01*
X030794Y021613D01*
X030844Y021576D01*
X030794Y021540D01*
X030726Y021472D01*
X030670Y021395D01*
X030626Y021310D01*
X030597Y021219D01*
X030582Y021124D01*
X030582Y021077D01*
X031189Y021077D01*
X031189Y021076D01*
X031190Y021076D01*
X031190Y020684D01*
X031190Y020077D01*
X031189Y020077D01*
X031189Y020684D01*
X031189Y021076D01*
X030582Y021076D01*
X030582Y021029D01*
X030597Y020934D01*
X030626Y020843D01*
X030670Y020758D01*
X030726Y020681D01*
X030794Y020613D01*
X030844Y020576D01*
X030794Y020540D01*
X030726Y020472D01*
X030670Y020395D01*
X030626Y020310D01*
X030597Y020219D01*
X030582Y020124D01*
X030582Y020077D01*
X031189Y020077D01*
X031189Y020076D01*
X031190Y020076D01*
X031190Y019684D01*
X031190Y019077D01*
X031189Y019077D01*
X031189Y019684D01*
X031189Y020076D01*
X030582Y020076D01*
X030582Y020029D01*
X030597Y019934D01*
X030626Y019843D01*
X030670Y019758D01*
X030726Y019681D01*
X030794Y019613D01*
X030844Y019576D01*
X030794Y019540D01*
X030726Y019472D01*
X030670Y019395D01*
X030626Y019310D01*
X030597Y019219D01*
X030582Y019124D01*
X030582Y019077D01*
X031189Y019077D01*
X031189Y019076D01*
X031190Y019076D01*
X031190Y018469D01*
X031237Y018469D01*
X031332Y018484D01*
X031423Y018513D01*
X031508Y018557D01*
X031585Y018613D01*
X031653Y018681D01*
X031709Y018758D01*
X031769Y019258D02*
X032833Y019258D01*
X032833Y019757D02*
X031708Y019757D01*
X031770Y020255D02*
X032833Y020255D01*
X032833Y020754D02*
X031706Y020754D01*
X031771Y021252D02*
X032833Y021252D01*
X032833Y021751D02*
X031704Y021751D01*
X031772Y022249D02*
X032833Y022249D01*
X032833Y022748D02*
X031702Y022748D01*
X031773Y023247D02*
X032833Y023247D01*
X032833Y023745D02*
X031699Y023745D01*
X031774Y024244D02*
X032833Y024244D01*
X032833Y024742D02*
X031697Y024742D01*
X031775Y025241D02*
X032833Y025241D01*
X032833Y025739D02*
X031695Y025739D01*
X031776Y026238D02*
X032833Y026238D01*
X032833Y026736D02*
X028445Y026736D01*
X028330Y026784D02*
X028049Y026784D01*
X027845Y026700D01*
X026587Y026700D01*
X026524Y026763D01*
X026249Y026876D01*
X025952Y026876D01*
X025678Y026763D01*
X025468Y026553D01*
X025354Y026278D01*
X025354Y025981D01*
X025468Y025707D01*
X025545Y025630D01*
X025468Y025553D01*
X025354Y025278D01*
X025354Y024981D01*
X025468Y024707D01*
X025545Y024630D01*
X025468Y024553D01*
X025354Y024278D01*
X025354Y023981D01*
X025468Y023707D01*
X025545Y023630D01*
X025468Y023553D01*
X025354Y023278D01*
X025354Y022981D01*
X025468Y022707D01*
X025545Y022630D01*
X025468Y022553D01*
X025354Y022278D01*
X025354Y021981D01*
X025468Y021707D01*
X025545Y021630D01*
X025468Y021553D01*
X025354Y021278D01*
X025354Y020981D01*
X025468Y020707D01*
X025545Y020630D01*
X025468Y020553D01*
X025354Y020278D01*
X025354Y019981D01*
X025468Y019707D01*
X025545Y019630D01*
X025468Y019553D01*
X025354Y019278D01*
X025354Y018981D01*
X025468Y018707D01*
X025678Y018496D01*
X025952Y018383D01*
X026249Y018383D01*
X026524Y018496D01*
X026534Y018506D01*
X027759Y018506D01*
X027789Y018477D01*
X028049Y018369D01*
X028330Y018369D01*
X028590Y018477D01*
X028789Y018676D01*
X028897Y018936D01*
X028897Y019217D01*
X028789Y019477D01*
X028690Y019576D01*
X028789Y019676D01*
X028897Y019936D01*
X028897Y020217D01*
X028789Y020477D01*
X028690Y020576D01*
X028789Y020676D01*
X028897Y020936D01*
X028897Y021217D01*
X028789Y021477D01*
X028690Y021576D01*
X028789Y021676D01*
X028897Y021936D01*
X028897Y022217D01*
X028789Y022477D01*
X028690Y022576D01*
X028789Y022676D01*
X028897Y022936D01*
X028897Y023217D01*
X028789Y023477D01*
X028690Y023576D01*
X028789Y023676D01*
X028897Y023936D01*
X028897Y024217D01*
X028789Y024477D01*
X028690Y024576D01*
X028789Y024676D01*
X028897Y024936D01*
X028897Y025217D01*
X028789Y025477D01*
X028690Y025576D01*
X028789Y025676D01*
X028897Y025936D01*
X028897Y026217D01*
X028789Y026477D01*
X028590Y026676D01*
X028330Y026784D01*
X027934Y026736D02*
X026550Y026736D01*
X025651Y026736D02*
X022900Y026736D01*
X023114Y026238D02*
X025354Y026238D01*
X025454Y025739D02*
X023114Y025739D01*
X023114Y025241D02*
X025354Y025241D01*
X025453Y024742D02*
X023114Y024742D01*
X023114Y024244D02*
X025354Y024244D01*
X025452Y023745D02*
X023114Y023745D01*
X023114Y023247D02*
X025354Y023247D01*
X025450Y022748D02*
X023114Y022748D01*
X023114Y022249D02*
X025354Y022249D01*
X025449Y021751D02*
X023114Y021751D01*
X023114Y021252D02*
X025354Y021252D01*
X025448Y020754D02*
X023114Y020754D01*
X023114Y020255D02*
X025354Y020255D01*
X025447Y019757D02*
X023114Y019757D01*
X023114Y019258D02*
X025354Y019258D01*
X025446Y018760D02*
X023039Y018760D01*
X021778Y018261D02*
X020352Y018261D01*
X019853Y017763D02*
X032833Y017763D01*
X032833Y017264D02*
X023820Y017264D01*
X023975Y016766D02*
X032833Y016766D01*
X032833Y016267D02*
X023751Y016267D01*
X023619Y015768D02*
X032833Y015768D01*
X032833Y015270D02*
X024032Y015270D01*
X019510Y019258D02*
X011988Y019258D01*
X011988Y019757D02*
X020116Y019757D01*
X021214Y020255D02*
X016561Y020255D01*
X016658Y020296D02*
X016835Y020473D01*
X016931Y020704D01*
X016931Y020808D01*
X016955Y020872D01*
X016946Y021131D01*
X016839Y021366D01*
X016650Y021543D01*
X016551Y021580D01*
X016551Y023428D01*
X016707Y023506D01*
X016876Y023701D01*
X016958Y023947D01*
X016940Y024205D01*
X016824Y024436D01*
X016629Y024605D01*
X016384Y024687D01*
X016126Y024669D01*
X015631Y024421D01*
X015533Y024381D01*
X015516Y024364D01*
X015494Y024353D01*
X015425Y024273D01*
X015350Y024198D01*
X015341Y024176D01*
X015325Y024158D01*
X015292Y024057D01*
X015251Y023959D01*
X015251Y023935D01*
X015243Y023912D01*
X015251Y023807D01*
X015251Y021247D01*
X015247Y021237D01*
X015251Y021119D01*
X015251Y021000D01*
X015255Y020990D01*
X015256Y020978D01*
X015304Y020871D01*
X015350Y020761D01*
X015358Y020753D01*
X015363Y020743D01*
X015448Y020663D01*
X015533Y020579D01*
X015543Y020574D01*
X015551Y020566D01*
X015662Y020525D01*
X015762Y020483D01*
X015767Y020473D01*
X015944Y020296D01*
X016175Y020200D01*
X016426Y020200D01*
X016658Y020296D01*
X016931Y020754D02*
X021214Y020754D01*
X021214Y021252D02*
X016891Y021252D01*
X016551Y021751D02*
X021214Y021751D01*
X021214Y022249D02*
X016551Y022249D01*
X016551Y022748D02*
X021214Y022748D01*
X021214Y023247D02*
X016551Y023247D01*
X016891Y023745D02*
X021214Y023745D01*
X021214Y024244D02*
X016920Y024244D01*
X015396Y024244D02*
X011988Y024244D01*
X011988Y024742D02*
X021214Y024742D01*
X021214Y025241D02*
X011988Y025241D01*
X011988Y025739D02*
X021214Y025739D01*
X021214Y026238D02*
X011988Y026238D01*
X011774Y026736D02*
X021427Y026736D01*
X015251Y023745D02*
X011988Y023745D01*
X011988Y023247D02*
X015251Y023247D01*
X015251Y022748D02*
X011988Y022748D01*
X011988Y022249D02*
X015251Y022249D01*
X015251Y021751D02*
X011988Y021751D01*
X011988Y021252D02*
X015251Y021252D01*
X015357Y020754D02*
X011988Y020754D01*
X011988Y020255D02*
X016041Y020255D01*
X015934Y018289D02*
X015891Y018289D01*
X015849Y018289D01*
X015765Y018278D01*
X015683Y018256D01*
X015605Y018224D01*
X015531Y018182D01*
X015464Y018130D01*
X015404Y018070D01*
X015352Y018003D01*
X015310Y017929D01*
X015278Y017851D01*
X015256Y017769D01*
X015244Y017685D01*
X015244Y017643D01*
X015891Y017643D01*
X015891Y018289D01*
X015891Y017643D01*
X015891Y017643D01*
X015891Y017642D01*
X015891Y017642D01*
X015891Y016996D01*
X015849Y016996D01*
X015765Y017007D01*
X015683Y017029D01*
X015605Y017061D01*
X015531Y017104D01*
X015464Y017155D01*
X015404Y017215D01*
X015352Y017282D01*
X015310Y017356D01*
X015278Y017434D01*
X015256Y017516D01*
X015244Y017600D01*
X015244Y017642D01*
X015891Y017642D01*
X015891Y016996D01*
X015934Y016996D01*
X016018Y017007D01*
X016100Y017029D01*
X016178Y017061D01*
X016251Y017104D01*
X016319Y017155D01*
X016379Y017215D01*
X016430Y017282D01*
X016473Y017356D01*
X016505Y017434D01*
X016527Y017516D01*
X016538Y017600D01*
X016538Y017642D01*
X015892Y017642D01*
X015892Y017643D01*
X016538Y017643D01*
X016538Y017685D01*
X016527Y017769D01*
X016505Y017851D01*
X016473Y017929D01*
X016430Y018003D01*
X016379Y018070D01*
X016319Y018130D01*
X016251Y018182D01*
X016178Y018224D01*
X016100Y018256D01*
X016018Y018278D01*
X015934Y018289D01*
X015891Y018261D02*
X015891Y018261D01*
X015701Y018261D02*
X011688Y018261D01*
X011913Y018760D02*
X019012Y018760D01*
X018513Y018261D02*
X016082Y018261D01*
X015891Y017763D02*
X015891Y017763D01*
X015891Y017264D02*
X015891Y017264D01*
X016416Y017264D02*
X016971Y017264D01*
X016905Y017763D02*
X016528Y017763D01*
X017529Y017763D02*
X017529Y017763D01*
X017529Y017264D02*
X017529Y017264D01*
X017551Y016766D02*
X015084Y016766D01*
X015366Y017264D02*
X014586Y017264D01*
X015255Y017763D02*
X012087Y017763D01*
X011246Y016766D02*
X010192Y016766D01*
X010209Y016807D02*
X010209Y017104D01*
X010095Y017379D01*
X009885Y017589D01*
X009611Y017702D01*
X009314Y017702D01*
X009039Y017589D01*
X008829Y017379D01*
X008715Y017104D01*
X008715Y016807D01*
X008829Y016533D01*
X008981Y016381D01*
X008981Y016216D01*
X009068Y016007D01*
X009228Y015846D01*
X009334Y015741D01*
X009231Y015493D01*
X009231Y015166D01*
X009356Y014865D01*
X009391Y014830D01*
X009356Y014794D01*
X009231Y014493D01*
X009231Y014166D01*
X009356Y013865D01*
X009586Y013634D01*
X009888Y013510D01*
X010214Y013510D01*
X010515Y013634D01*
X010653Y013772D01*
X010669Y013779D01*
X010826Y013936D01*
X010856Y013865D01*
X010886Y013834D01*
X010531Y013480D01*
X009857Y013480D01*
X009723Y013535D01*
X009426Y013535D01*
X009151Y013421D01*
X008941Y013211D01*
X008828Y012937D01*
X008828Y012640D01*
X008941Y012365D01*
X009151Y012155D01*
X009426Y012041D01*
X009723Y012041D01*
X009997Y012155D01*
X010022Y012180D01*
X010930Y012180D01*
X011169Y012279D01*
X013113Y012279D01*
X013084Y012301D02*
X013151Y012249D01*
X013225Y012207D01*
X013303Y012174D01*
X013385Y012152D01*
X013469Y012141D01*
X013511Y012141D01*
X013511Y012788D01*
X012865Y012788D01*
X012865Y012746D01*
X012876Y012662D01*
X012898Y012580D01*
X012930Y012502D01*
X012972Y012428D01*
X013024Y012361D01*
X013084Y012301D01*
X012865Y012777D02*
X011668Y012777D01*
X011352Y012461D02*
X012102Y013211D01*
X012201Y013450D01*
X012201Y013709D01*
X012201Y013820D01*
X012246Y013865D01*
X012358Y014135D01*
X012368Y014098D01*
X012404Y014010D01*
X012451Y013929D01*
X012508Y013854D01*
X012575Y013787D01*
X012650Y013730D01*
X012732Y013682D01*
X012819Y013646D01*
X012910Y013622D01*
X013004Y013610D01*
X013051Y013610D01*
X013098Y013610D01*
X013192Y013622D01*
X013283Y013646D01*
X013370Y013682D01*
X013452Y013730D01*
X013526Y013787D01*
X013593Y013854D01*
X013651Y013929D01*
X013698Y014010D01*
X013734Y014098D01*
X013758Y014189D01*
X013771Y014282D01*
X013771Y014329D01*
X013051Y014329D01*
X013051Y013610D01*
X013051Y014329D01*
X013051Y014329D01*
X013051Y014330D01*
X013771Y014330D01*
X013771Y014377D01*
X013758Y014470D01*
X013734Y014562D01*
X013698Y014649D01*
X013651Y014730D01*
X013634Y014753D01*
X013746Y014865D01*
X013871Y015166D01*
X013871Y015493D01*
X013746Y015794D01*
X013515Y016025D01*
X013214Y016150D01*
X012888Y016150D01*
X012586Y016025D01*
X012541Y015980D01*
X012060Y015980D01*
X012015Y016025D01*
X011714Y016150D01*
X011388Y016150D01*
X011086Y016025D01*
X010949Y015887D01*
X010933Y015881D01*
X010775Y015723D01*
X010746Y015794D01*
X010621Y015919D01*
X010621Y015943D01*
X010534Y016152D01*
X010121Y016566D01*
X010121Y016594D01*
X010209Y016807D01*
X010143Y017264D02*
X010747Y017264D01*
X010388Y017763D02*
X000751Y017763D01*
X000751Y017264D02*
X008782Y017264D01*
X008733Y016766D02*
X000751Y016766D01*
X000751Y016267D02*
X008981Y016267D01*
X009228Y015846D02*
X009228Y015846D01*
X009306Y015768D02*
X000751Y015768D01*
X000751Y015270D02*
X009231Y015270D01*
X009346Y014771D02*
X000751Y014771D01*
X000751Y014273D02*
X009231Y014273D01*
X009446Y013774D02*
X008075Y013774D01*
X008046Y013844D02*
X008171Y013543D01*
X008171Y013216D01*
X008046Y012915D01*
X007815Y012684D01*
X007514Y012560D01*
X007188Y012560D01*
X006886Y012684D01*
X006851Y012720D01*
X006815Y012684D01*
X006514Y012560D01*
X006188Y012560D01*
X005886Y012684D01*
X005851Y012720D01*
X005815Y012684D01*
X005514Y012560D01*
X005188Y012560D01*
X004886Y012684D01*
X004656Y012915D01*
X004531Y013216D01*
X004531Y013543D01*
X004656Y013844D01*
X004886Y014075D01*
X005188Y014200D01*
X005514Y014200D01*
X005815Y014075D01*
X005851Y014039D01*
X005886Y014075D01*
X006188Y014200D01*
X006514Y014200D01*
X006815Y014075D01*
X006851Y014039D01*
X006886Y014075D01*
X007188Y014200D01*
X007514Y014200D01*
X007815Y014075D01*
X008046Y013844D01*
X008171Y013276D02*
X009006Y013276D01*
X008828Y012777D02*
X007908Y012777D01*
X009028Y012279D02*
X000751Y012279D01*
X000751Y012777D02*
X004794Y012777D01*
X004531Y013276D02*
X000751Y013276D01*
X000751Y013774D02*
X004627Y013774D01*
X000751Y011780D02*
X014200Y011780D01*
X014026Y012279D02*
X013910Y012279D01*
X013512Y012279D02*
X013511Y012279D01*
X013511Y012777D02*
X013512Y012777D01*
X013511Y012788D02*
X013512Y012788D01*
X014158Y012788D01*
X014158Y012831D01*
X014147Y012915D01*
X014125Y012997D01*
X014093Y013075D01*
X014050Y013148D01*
X013999Y013216D01*
X013939Y013276D01*
X015241Y013276D01*
X015144Y013774D02*
X013510Y013774D01*
X013511Y013435D02*
X013469Y013435D01*
X013385Y013424D01*
X013303Y013402D01*
X013225Y013370D01*
X013151Y013327D01*
X013084Y013276D01*
X012128Y013276D01*
X012201Y013774D02*
X012592Y013774D01*
X013051Y013774D02*
X013051Y013774D01*
X013084Y013276D02*
X013024Y013216D01*
X012972Y013148D01*
X012930Y013075D01*
X012898Y012997D01*
X012876Y012915D01*
X012865Y012831D01*
X012865Y012788D01*
X013511Y012788D01*
X013511Y012788D01*
X013511Y012789D02*
X013511Y013435D01*
X013512Y013435D02*
X013512Y012789D01*
X013511Y012789D01*
X013511Y013276D02*
X013512Y013276D01*
X013512Y013435D02*
X013554Y013435D01*
X013638Y013424D01*
X013720Y013402D01*
X013798Y013370D01*
X013872Y013327D01*
X013939Y013276D01*
X014158Y012777D02*
X014232Y012777D01*
X013769Y014273D02*
X015151Y014273D01*
X015151Y014771D02*
X013652Y014771D01*
X013871Y015270D02*
X014741Y015270D01*
X014243Y015768D02*
X013757Y015768D01*
X013051Y014273D02*
X013051Y014273D01*
X010826Y013774D02*
X010659Y013774D01*
X011352Y012461D02*
X011169Y012279D01*
X010448Y010284D02*
X009969Y010284D01*
X010271Y009786D02*
X010397Y009786D01*
X010397Y009287D02*
X010220Y009287D01*
X012091Y008789D02*
X013522Y008789D01*
X013730Y009287D02*
X012242Y009287D01*
X015295Y007792D02*
X017907Y007792D01*
X017570Y008290D02*
X015631Y008290D01*
X015679Y008789D02*
X017522Y008789D01*
X017730Y009287D02*
X015472Y009287D01*
X017601Y010284D02*
X017601Y010284D01*
X017601Y010783D02*
X017601Y010783D01*
X018229Y010783D02*
X032833Y010783D01*
X032833Y011282D02*
X016978Y011282D01*
X018148Y010284D02*
X030076Y010284D01*
X032126Y010284D02*
X032833Y010284D01*
X032774Y009786D02*
X032428Y009786D01*
X032833Y011780D02*
X019284Y011780D01*
X016878Y013276D02*
X016541Y013276D01*
X017862Y014771D02*
X018685Y014771D01*
X018625Y015270D02*
X018360Y015270D01*
X018796Y015768D02*
X019038Y015768D01*
X017519Y016267D02*
X015583Y016267D01*
X016081Y015768D02*
X017020Y015768D01*
X016522Y015270D02*
X016446Y015270D01*
X011760Y016267D02*
X010419Y016267D01*
X010757Y015768D02*
X010820Y015768D01*
X010388Y018261D02*
X000751Y018261D01*
X000751Y018760D02*
X001552Y018760D01*
X001534Y018784D02*
X001590Y018707D01*
X001658Y018639D01*
X001735Y018583D01*
X001820Y018540D01*
X001911Y018510D01*
X002006Y018495D01*
X002053Y018495D01*
X002053Y019102D01*
X002054Y019102D01*
X002054Y018495D01*
X002101Y018495D01*
X002196Y018510D01*
X002287Y018540D01*
X002372Y018583D01*
X002449Y018639D01*
X002517Y018707D01*
X002573Y018784D01*
X002616Y018870D01*
X002646Y018961D01*
X002661Y019055D01*
X002661Y019103D01*
X002661Y019151D01*
X002646Y019245D01*
X002616Y019336D01*
X002573Y019421D01*
X002517Y019499D01*
X002449Y019566D01*
X002399Y019603D01*
X002449Y019639D01*
X002517Y019707D01*
X002573Y019784D01*
X002616Y019870D01*
X002646Y019961D01*
X002661Y020055D01*
X002661Y020103D01*
X002661Y020151D01*
X002646Y020245D01*
X002616Y020336D01*
X002573Y020421D01*
X002517Y020499D01*
X002449Y020566D01*
X002399Y020603D01*
X002449Y020639D01*
X002517Y020707D01*
X002573Y020784D01*
X002616Y020870D01*
X002646Y020961D01*
X002661Y021055D01*
X002661Y021103D01*
X002661Y021151D01*
X002646Y021245D01*
X002616Y021336D01*
X002573Y021421D01*
X002517Y021499D01*
X002449Y021566D01*
X002399Y021603D01*
X002449Y021639D01*
X002517Y021707D01*
X002573Y021784D01*
X002616Y021870D01*
X002646Y021961D01*
X002661Y022055D01*
X002661Y022103D01*
X002661Y022151D01*
X002646Y022245D01*
X002616Y022336D01*
X002573Y022421D01*
X002517Y022499D01*
X002449Y022566D01*
X002399Y022603D01*
X002449Y022639D01*
X002517Y022707D01*
X002573Y022784D01*
X002616Y022870D01*
X002646Y022961D01*
X002661Y023055D01*
X002661Y023103D01*
X002661Y023151D01*
X002646Y023245D01*
X002616Y023336D01*
X002573Y023421D01*
X002517Y023499D01*
X002449Y023566D01*
X002399Y023603D01*
X002449Y023639D01*
X002517Y023707D01*
X002573Y023784D01*
X002616Y023870D01*
X002646Y023961D01*
X002661Y024055D01*
X002661Y024103D01*
X002661Y024151D01*
X002646Y024245D01*
X002616Y024336D01*
X002573Y024421D01*
X002517Y024499D01*
X002449Y024566D01*
X002399Y024603D01*
X002449Y024639D01*
X002517Y024707D01*
X002573Y024784D01*
X002616Y024870D01*
X002646Y024961D01*
X002661Y025055D01*
X002661Y025103D01*
X002661Y025151D01*
X002646Y025245D01*
X002616Y025336D01*
X002573Y025421D01*
X002517Y025499D01*
X002449Y025566D01*
X002399Y025603D01*
X002449Y025639D01*
X002517Y025707D01*
X002573Y025784D01*
X002616Y025870D01*
X002646Y025961D01*
X002661Y026055D01*
X002661Y026103D01*
X002661Y026151D01*
X002646Y026245D01*
X002616Y026336D01*
X002573Y026421D01*
X002517Y026499D01*
X002449Y026566D01*
X002372Y026622D01*
X002287Y026666D01*
X002196Y026695D01*
X002101Y026710D01*
X002054Y026710D01*
X002054Y026103D01*
X002661Y026103D01*
X002054Y026103D01*
X002054Y026103D01*
X002053Y026103D01*
X002053Y026103D01*
X001446Y026103D01*
X001446Y026151D01*
X001461Y026245D01*
X001491Y026336D01*
X001534Y026421D01*
X001590Y026499D01*
X001658Y026566D01*
X001735Y026622D01*
X001820Y026666D01*
X001911Y026695D01*
X002006Y026710D01*
X002053Y026710D01*
X002053Y026103D01*
X001446Y026103D01*
X001446Y026055D01*
X001461Y025961D01*
X001491Y025870D01*
X001534Y025784D01*
X001590Y025707D01*
X001658Y025639D01*
X001708Y025603D01*
X001658Y025566D01*
X001590Y025499D01*
X001534Y025421D01*
X001491Y025336D01*
X001461Y025245D01*
X001446Y025151D01*
X001446Y025103D01*
X002053Y025103D01*
X002053Y025103D01*
X001446Y025103D01*
X001446Y025055D01*
X001461Y024961D01*
X001491Y024870D01*
X001534Y024784D01*
X001590Y024707D01*
X001658Y024639D01*
X001708Y024603D01*
X001658Y024566D01*
X001590Y024499D01*
X001534Y024421D01*
X001491Y024336D01*
X001461Y024245D01*
X001446Y024151D01*
X001446Y024103D01*
X002053Y024103D01*
X002053Y024103D01*
X001446Y024103D01*
X001446Y024055D01*
X001461Y023961D01*
X001491Y023870D01*
X001534Y023784D01*
X001590Y023707D01*
X001658Y023639D01*
X001708Y023603D01*
X001658Y023566D01*
X001590Y023499D01*
X001534Y023421D01*
X001491Y023336D01*
X001461Y023245D01*
X001446Y023151D01*
X001446Y023103D01*
X002053Y023103D01*
X002053Y023103D01*
X001446Y023103D01*
X001446Y023055D01*
X001461Y022961D01*
X001491Y022870D01*
X001534Y022784D01*
X001590Y022707D01*
X001658Y022639D01*
X001708Y022603D01*
X001658Y022566D01*
X001590Y022499D01*
X001534Y022421D01*
X001491Y022336D01*
X001461Y022245D01*
X001446Y022151D01*
X001446Y022103D01*
X002053Y022103D01*
X002053Y022103D01*
X001446Y022103D01*
X001446Y022055D01*
X001461Y021961D01*
X001491Y021870D01*
X001534Y021784D01*
X001590Y021707D01*
X001658Y021639D01*
X001708Y021603D01*
X001658Y021566D01*
X001590Y021499D01*
X001534Y021421D01*
X001491Y021336D01*
X001461Y021245D01*
X001446Y021151D01*
X001446Y021103D01*
X002053Y021103D01*
X002053Y021103D01*
X001446Y021103D01*
X001446Y021055D01*
X001461Y020961D01*
X001491Y020870D01*
X001534Y020784D01*
X001590Y020707D01*
X001658Y020639D01*
X001708Y020603D01*
X001658Y020566D01*
X001590Y020499D01*
X001534Y020421D01*
X001491Y020336D01*
X001461Y020245D01*
X001446Y020151D01*
X001446Y020103D01*
X002053Y020103D01*
X002053Y020103D01*
X001446Y020103D01*
X001446Y020055D01*
X001461Y019961D01*
X001491Y019870D01*
X001534Y019784D01*
X001590Y019707D01*
X001658Y019639D01*
X001708Y019603D01*
X001658Y019566D01*
X001590Y019499D01*
X001534Y019421D01*
X001491Y019336D01*
X001461Y019245D01*
X001446Y019151D01*
X001446Y019103D01*
X002053Y019103D01*
X002053Y019103D01*
X001446Y019103D01*
X001446Y019055D01*
X001461Y018961D01*
X001491Y018870D01*
X001534Y018784D01*
X001465Y019258D02*
X000751Y019258D01*
X000751Y019757D02*
X001554Y019757D01*
X001464Y020255D02*
X000751Y020255D01*
X000751Y020754D02*
X001556Y020754D01*
X001463Y021252D02*
X000751Y021252D01*
X000751Y021751D02*
X001558Y021751D01*
X001462Y022249D02*
X000751Y022249D01*
X000751Y022748D02*
X001560Y022748D01*
X002053Y022748D02*
X002054Y022748D01*
X002054Y022495D02*
X002054Y023102D01*
X002053Y023102D01*
X002053Y022495D01*
X002053Y022103D01*
X002054Y022103D01*
X002661Y022103D01*
X002054Y022103D01*
X002054Y022103D01*
X002054Y022495D01*
X002053Y022249D02*
X002054Y022249D01*
X002054Y022102D02*
X002054Y021495D01*
X002054Y021103D01*
X002661Y021103D01*
X002054Y021103D01*
X002054Y021103D01*
X002053Y021103D01*
X002053Y021495D01*
X002053Y022102D01*
X002054Y022102D01*
X002053Y021751D02*
X002054Y021751D01*
X002549Y021751D02*
X004434Y021751D01*
X004454Y021702D02*
X004553Y021603D01*
X004454Y021504D01*
X004346Y021244D01*
X004346Y020962D01*
X004454Y020702D01*
X004553Y020603D01*
X004454Y020504D01*
X004346Y020244D01*
X004346Y019962D01*
X004454Y019702D01*
X004553Y019603D01*
X004454Y019504D01*
X004346Y019244D01*
X004346Y018962D01*
X004454Y018702D01*
X004653Y018503D01*
X004913Y018395D01*
X005194Y018395D01*
X005454Y018503D01*
X005511Y018560D01*
X006615Y018560D01*
X006678Y018496D01*
X006952Y018383D01*
X007249Y018383D01*
X007524Y018496D01*
X007734Y018707D01*
X007848Y018981D01*
X007848Y019278D01*
X007734Y019553D01*
X007657Y019630D01*
X007734Y019707D01*
X007848Y019981D01*
X007848Y020278D01*
X007734Y020553D01*
X007657Y020630D01*
X007734Y020707D01*
X007848Y020981D01*
X007848Y021278D01*
X007734Y021553D01*
X007657Y021630D01*
X007734Y021707D01*
X007848Y021981D01*
X007848Y022278D01*
X007734Y022553D01*
X007657Y022630D01*
X007734Y022707D01*
X007848Y022981D01*
X007848Y023278D01*
X007734Y023553D01*
X007657Y023630D01*
X007734Y023707D01*
X007848Y023981D01*
X007848Y024278D01*
X007734Y024553D01*
X007657Y024630D01*
X007734Y024707D01*
X007848Y024981D01*
X007848Y025278D01*
X007734Y025553D01*
X007657Y025630D01*
X007734Y025707D01*
X007848Y025981D01*
X007848Y026278D01*
X007734Y026553D01*
X007524Y026763D01*
X007249Y026876D01*
X006952Y026876D01*
X006678Y026763D01*
X006615Y026700D01*
X005457Y026700D01*
X005454Y026703D01*
X005194Y026810D01*
X004913Y026810D01*
X004653Y026703D01*
X004454Y026504D01*
X004346Y026244D01*
X004346Y025962D01*
X004454Y025702D01*
X004553Y025603D01*
X004454Y025504D01*
X004346Y025244D01*
X004346Y024962D01*
X004454Y024702D01*
X004553Y024603D01*
X004454Y024504D01*
X004346Y024244D01*
X002646Y024244D01*
X002661Y024103D02*
X002054Y024103D01*
X002054Y024103D01*
X002661Y024103D01*
X002544Y023745D02*
X004436Y023745D01*
X004454Y023702D02*
X004553Y023603D01*
X004454Y023504D01*
X004346Y023244D01*
X004346Y022962D01*
X004454Y022702D01*
X004553Y022603D01*
X004454Y022504D01*
X004346Y022244D01*
X004346Y021962D01*
X004454Y021702D01*
X004349Y022249D02*
X002645Y022249D01*
X002547Y022748D02*
X004435Y022748D01*
X004347Y023247D02*
X002646Y023247D01*
X002661Y023103D02*
X002054Y023103D01*
X002054Y023103D01*
X002661Y023103D01*
X002054Y023103D02*
X002054Y023495D01*
X002054Y024102D01*
X002053Y024102D01*
X002053Y023495D01*
X002053Y023103D01*
X002054Y023103D01*
X002053Y023247D02*
X002054Y023247D01*
X002053Y023745D02*
X002054Y023745D01*
X002053Y024103D02*
X002053Y024495D01*
X002053Y025102D01*
X002054Y025102D01*
X002054Y024495D01*
X002054Y024103D01*
X002053Y024103D01*
X002053Y024244D02*
X002054Y024244D01*
X002053Y024742D02*
X002054Y024742D01*
X002542Y024742D02*
X004437Y024742D01*
X004346Y024244D02*
X004346Y023962D01*
X004454Y023702D01*
X004346Y025241D02*
X002647Y025241D01*
X002661Y025103D02*
X002054Y025103D01*
X002054Y025103D01*
X002661Y025103D01*
X002054Y025103D02*
X002054Y025495D01*
X002054Y026102D01*
X002053Y026102D01*
X002053Y025495D01*
X002053Y025103D01*
X002054Y025103D01*
X002053Y025241D02*
X002054Y025241D01*
X002053Y025739D02*
X002054Y025739D01*
X002540Y025739D02*
X004438Y025739D01*
X004346Y026238D02*
X002647Y026238D01*
X002054Y026238D02*
X002053Y026238D01*
X001460Y026238D02*
X000751Y026238D01*
X000751Y025739D02*
X001567Y025739D01*
X001460Y025241D02*
X000751Y025241D01*
X000751Y024742D02*
X001565Y024742D01*
X001461Y024244D02*
X000751Y024244D01*
X000751Y023745D02*
X001563Y023745D01*
X001462Y023247D02*
X000751Y023247D01*
X002053Y021252D02*
X002054Y021252D01*
X002054Y021102D02*
X002054Y020495D01*
X002054Y020103D01*
X002661Y020103D01*
X002054Y020103D01*
X002054Y020103D01*
X002053Y020103D01*
X002053Y020710D01*
X002053Y021102D01*
X002054Y021102D01*
X002053Y020754D02*
X002054Y020754D01*
X002551Y020754D02*
X004432Y020754D01*
X004350Y021252D02*
X002644Y021252D01*
X002643Y020255D02*
X004351Y020255D01*
X004431Y019757D02*
X002553Y019757D01*
X002054Y019757D02*
X002053Y019757D01*
X002054Y019710D02*
X002054Y020102D01*
X002053Y020102D01*
X002053Y019710D01*
X002053Y019103D01*
X002054Y019103D01*
X002661Y019103D01*
X002054Y019103D01*
X002054Y019103D01*
X002054Y019710D01*
X002053Y019258D02*
X002054Y019258D01*
X002642Y019258D02*
X004352Y019258D01*
X004430Y018760D02*
X002555Y018760D01*
X002054Y018760D02*
X002053Y018760D01*
X002053Y020255D02*
X002054Y020255D01*
X007753Y020754D02*
X010088Y020754D01*
X010088Y021252D02*
X007848Y021252D01*
X007752Y021751D02*
X010088Y021751D01*
X010088Y022249D02*
X007848Y022249D01*
X007751Y022748D02*
X010088Y022748D01*
X010088Y023247D02*
X007848Y023247D01*
X007750Y023745D02*
X010088Y023745D01*
X010088Y024244D02*
X007848Y024244D01*
X007749Y024742D02*
X010088Y024742D01*
X010088Y025241D02*
X007848Y025241D01*
X007747Y025739D02*
X010088Y025739D01*
X010088Y026238D02*
X007848Y026238D01*
X007550Y026736D02*
X010301Y026736D01*
X006651Y026736D02*
X005373Y026736D01*
X004734Y026736D02*
X000751Y026736D01*
X000751Y027235D02*
X032833Y027235D01*
X032833Y027733D02*
X031985Y027733D01*
X032372Y028232D02*
X032767Y028232D01*
X030904Y030226D02*
X002798Y030226D01*
X003683Y029728D02*
X030019Y029728D01*
X029758Y029229D02*
X003943Y029229D01*
X004001Y028731D02*
X029701Y028731D01*
X029829Y028232D02*
X003872Y028232D01*
X003485Y027733D02*
X030217Y027733D01*
X030603Y026238D02*
X028888Y026238D01*
X028815Y025739D02*
X030683Y025739D01*
X031189Y025739D02*
X031190Y025739D01*
X031189Y026238D02*
X031190Y026238D01*
X031189Y025241D02*
X031190Y025241D01*
X030604Y025241D02*
X028887Y025241D01*
X028817Y024742D02*
X030681Y024742D01*
X030605Y024244D02*
X028886Y024244D01*
X028818Y023745D02*
X030679Y023745D01*
X030606Y023247D02*
X028885Y023247D01*
X028819Y022748D02*
X030677Y022748D01*
X031189Y022748D02*
X031190Y022748D01*
X031189Y022249D02*
X031190Y022249D01*
X031189Y021751D02*
X031190Y021751D01*
X030675Y021751D02*
X028820Y021751D01*
X028883Y022249D02*
X030607Y022249D01*
X030608Y021252D02*
X028882Y021252D01*
X028821Y020754D02*
X030673Y020754D01*
X031189Y020754D02*
X031190Y020754D01*
X031189Y021252D02*
X031190Y021252D01*
X031189Y020255D02*
X031190Y020255D01*
X031189Y019757D02*
X031190Y019757D01*
X030671Y019757D02*
X028823Y019757D01*
X028881Y020255D02*
X030609Y020255D01*
X030610Y019258D02*
X028880Y019258D01*
X028824Y018760D02*
X030669Y018760D01*
X030670Y018758D02*
X030726Y018681D01*
X030794Y018613D01*
X030871Y018557D01*
X030956Y018513D01*
X031047Y018484D01*
X031142Y018469D01*
X031189Y018469D01*
X031189Y019076D01*
X030582Y019076D01*
X030582Y019029D01*
X030597Y018934D01*
X030626Y018843D01*
X030670Y018758D01*
X031189Y018760D02*
X031190Y018760D01*
X031189Y019258D02*
X031190Y019258D01*
X031189Y023247D02*
X031190Y023247D01*
X031189Y023745D02*
X031190Y023745D01*
X031189Y024244D02*
X031190Y024244D01*
X031189Y024742D02*
X031190Y024742D01*
X026851Y008789D02*
X026851Y008789D01*
X026851Y008290D02*
X026851Y008290D01*
X026215Y008290D02*
X023848Y008290D01*
X023921Y008789D02*
X026148Y008789D01*
X010163Y018760D02*
X007756Y018760D01*
X007848Y019258D02*
X010088Y019258D01*
X010088Y019757D02*
X007755Y019757D01*
X007848Y020255D02*
X010088Y020255D01*
X001717Y027733D02*
X000751Y027733D01*
X000751Y028232D02*
X001329Y028232D01*
X001201Y028731D02*
X001001Y028731D01*
X000751Y010284D02*
X001576Y010284D01*
X001274Y009786D02*
X000751Y009786D01*
X001143Y009287D02*
X001201Y009287D01*
D18*
X009616Y012830D02*
X010801Y012830D01*
X011551Y013580D01*
X011551Y014330D01*
X011551Y015330D02*
X013051Y015330D01*
X013273Y016830D02*
X012101Y016830D01*
X011038Y017893D01*
X011038Y019130D01*
X013273Y016830D02*
X013399Y016956D01*
X013273Y016830D02*
X014101Y016830D01*
X015801Y015130D01*
X015801Y013796D01*
X015891Y013706D02*
X016701Y014515D01*
X016701Y014530D02*
X018201Y016030D01*
X018201Y017030D01*
X020301Y019130D01*
X022164Y019130D01*
X016301Y020980D02*
X015901Y021130D01*
X015901Y023830D01*
X016301Y024030D01*
X011301Y015330D02*
X010301Y014330D01*
X014806Y012230D02*
X015401Y012230D01*
X015891Y012720D01*
X015891Y013706D01*
X002101Y019030D02*
X002001Y018930D01*
X002001Y018830D01*
X002101Y019030D02*
X002101Y021030D01*
X002001Y021130D01*
X002001Y022030D01*
X002101Y022130D01*
X002101Y023130D01*
X002001Y023230D01*
X002001Y026030D01*
X002054Y025977D01*
X002054Y025103D01*
X002054Y024103D01*
X002054Y023103D01*
X002054Y022103D01*
X002054Y021103D01*
X002054Y020103D01*
X002054Y019103D01*
X002054Y025103D02*
X002054Y026103D01*
X031189Y026076D02*
X031189Y019076D01*
X031189Y018918D01*
X031101Y018830D01*
D19*
X022164Y019130D02*
X022164Y020130D01*
X022164Y021130D01*
X022164Y022130D01*
X022164Y023130D01*
X022164Y024130D01*
X022164Y025130D01*
X022164Y026130D01*
X011038Y026130D02*
X011038Y025130D01*
X011038Y024130D01*
X011038Y023130D01*
X011038Y022130D01*
X011038Y021130D01*
X011038Y020130D01*
X011038Y019130D01*
D20*
X022164Y019130D02*
X022164Y021130D01*
X022101Y021130D01*
X022164Y021130D02*
X022101Y021067D01*
X022101Y020880D01*
X022164Y020943D01*
X022164Y021130D01*
D21*
X016701Y014530D02*
X016701Y014515D01*
X015891Y013706D02*
X015801Y013796D01*
X014773Y012263D02*
X014806Y012230D01*
D22*
X016301Y020830D03*
X016301Y024030D03*
D23*
X016301Y020980D02*
X016301Y020830D01*
M02*
