G75*
G70*
%OFA0B0*%
%FSLAX24Y24*%
%IPPOS*%
%LPD*%
%AMOC8*
5,1,8,0,0,1.08239X$1,22.5*
%
%ADD10C,0.0000*%
D10*
X002601Y006630D02*
X030983Y006630D01*
X033483Y009130D01*
X033483Y028750D01*
X030983Y031250D01*
X002601Y031250D01*
X000101Y028750D01*
X000101Y009130D01*
X002601Y006630D01*
X001851Y009330D02*
X001853Y009384D01*
X001859Y009438D01*
X001869Y009491D01*
X001882Y009544D01*
X001899Y009595D01*
X001920Y009645D01*
X001945Y009693D01*
X001973Y009740D01*
X002004Y009784D01*
X002038Y009826D01*
X002075Y009865D01*
X002115Y009902D01*
X002158Y009935D01*
X002203Y009966D01*
X002250Y009993D01*
X002298Y010016D01*
X002349Y010036D01*
X002400Y010053D01*
X002453Y010065D01*
X002506Y010074D01*
X002560Y010079D01*
X002615Y010080D01*
X002669Y010077D01*
X002722Y010070D01*
X002775Y010059D01*
X002828Y010045D01*
X002879Y010027D01*
X002928Y010005D01*
X002976Y009980D01*
X003022Y009951D01*
X003066Y009919D01*
X003107Y009884D01*
X003145Y009846D01*
X003181Y009805D01*
X003214Y009762D01*
X003244Y009717D01*
X003270Y009669D01*
X003293Y009620D01*
X003312Y009569D01*
X003327Y009518D01*
X003339Y009465D01*
X003347Y009411D01*
X003351Y009357D01*
X003351Y009303D01*
X003347Y009249D01*
X003339Y009195D01*
X003327Y009142D01*
X003312Y009091D01*
X003293Y009040D01*
X003270Y008991D01*
X003244Y008943D01*
X003214Y008898D01*
X003181Y008855D01*
X003145Y008814D01*
X003107Y008776D01*
X003066Y008741D01*
X003022Y008709D01*
X002976Y008680D01*
X002928Y008655D01*
X002879Y008633D01*
X002828Y008615D01*
X002775Y008601D01*
X002722Y008590D01*
X002669Y008583D01*
X002615Y008580D01*
X002560Y008581D01*
X002506Y008586D01*
X002453Y008595D01*
X002400Y008607D01*
X002349Y008624D01*
X002298Y008644D01*
X002250Y008667D01*
X002203Y008694D01*
X002158Y008725D01*
X002115Y008758D01*
X002075Y008795D01*
X002038Y008834D01*
X002004Y008876D01*
X001973Y008920D01*
X001945Y008967D01*
X001920Y009015D01*
X001899Y009065D01*
X001882Y009116D01*
X001869Y009169D01*
X001859Y009222D01*
X001853Y009276D01*
X001851Y009330D01*
X001851Y028830D02*
X001853Y028884D01*
X001859Y028938D01*
X001869Y028991D01*
X001882Y029044D01*
X001899Y029095D01*
X001920Y029145D01*
X001945Y029193D01*
X001973Y029240D01*
X002004Y029284D01*
X002038Y029326D01*
X002075Y029365D01*
X002115Y029402D01*
X002158Y029435D01*
X002203Y029466D01*
X002250Y029493D01*
X002298Y029516D01*
X002349Y029536D01*
X002400Y029553D01*
X002453Y029565D01*
X002506Y029574D01*
X002560Y029579D01*
X002615Y029580D01*
X002669Y029577D01*
X002722Y029570D01*
X002775Y029559D01*
X002828Y029545D01*
X002879Y029527D01*
X002928Y029505D01*
X002976Y029480D01*
X003022Y029451D01*
X003066Y029419D01*
X003107Y029384D01*
X003145Y029346D01*
X003181Y029305D01*
X003214Y029262D01*
X003244Y029217D01*
X003270Y029169D01*
X003293Y029120D01*
X003312Y029069D01*
X003327Y029018D01*
X003339Y028965D01*
X003347Y028911D01*
X003351Y028857D01*
X003351Y028803D01*
X003347Y028749D01*
X003339Y028695D01*
X003327Y028642D01*
X003312Y028591D01*
X003293Y028540D01*
X003270Y028491D01*
X003244Y028443D01*
X003214Y028398D01*
X003181Y028355D01*
X003145Y028314D01*
X003107Y028276D01*
X003066Y028241D01*
X003022Y028209D01*
X002976Y028180D01*
X002928Y028155D01*
X002879Y028133D01*
X002828Y028115D01*
X002775Y028101D01*
X002722Y028090D01*
X002669Y028083D01*
X002615Y028080D01*
X002560Y028081D01*
X002506Y028086D01*
X002453Y028095D01*
X002400Y028107D01*
X002349Y028124D01*
X002298Y028144D01*
X002250Y028167D01*
X002203Y028194D01*
X002158Y028225D01*
X002115Y028258D01*
X002075Y028295D01*
X002038Y028334D01*
X002004Y028376D01*
X001973Y028420D01*
X001945Y028467D01*
X001920Y028515D01*
X001899Y028565D01*
X001882Y028616D01*
X001869Y028669D01*
X001859Y028722D01*
X001853Y028776D01*
X001851Y028830D01*
X030351Y028830D02*
X030353Y028884D01*
X030359Y028938D01*
X030369Y028991D01*
X030382Y029044D01*
X030399Y029095D01*
X030420Y029145D01*
X030445Y029193D01*
X030473Y029240D01*
X030504Y029284D01*
X030538Y029326D01*
X030575Y029365D01*
X030615Y029402D01*
X030658Y029435D01*
X030703Y029466D01*
X030750Y029493D01*
X030798Y029516D01*
X030849Y029536D01*
X030900Y029553D01*
X030953Y029565D01*
X031006Y029574D01*
X031060Y029579D01*
X031115Y029580D01*
X031169Y029577D01*
X031222Y029570D01*
X031275Y029559D01*
X031328Y029545D01*
X031379Y029527D01*
X031428Y029505D01*
X031476Y029480D01*
X031522Y029451D01*
X031566Y029419D01*
X031607Y029384D01*
X031645Y029346D01*
X031681Y029305D01*
X031714Y029262D01*
X031744Y029217D01*
X031770Y029169D01*
X031793Y029120D01*
X031812Y029069D01*
X031827Y029018D01*
X031839Y028965D01*
X031847Y028911D01*
X031851Y028857D01*
X031851Y028803D01*
X031847Y028749D01*
X031839Y028695D01*
X031827Y028642D01*
X031812Y028591D01*
X031793Y028540D01*
X031770Y028491D01*
X031744Y028443D01*
X031714Y028398D01*
X031681Y028355D01*
X031645Y028314D01*
X031607Y028276D01*
X031566Y028241D01*
X031522Y028209D01*
X031476Y028180D01*
X031428Y028155D01*
X031379Y028133D01*
X031328Y028115D01*
X031275Y028101D01*
X031222Y028090D01*
X031169Y028083D01*
X031115Y028080D01*
X031060Y028081D01*
X031006Y028086D01*
X030953Y028095D01*
X030900Y028107D01*
X030849Y028124D01*
X030798Y028144D01*
X030750Y028167D01*
X030703Y028194D01*
X030658Y028225D01*
X030615Y028258D01*
X030575Y028295D01*
X030538Y028334D01*
X030504Y028376D01*
X030473Y028420D01*
X030445Y028467D01*
X030420Y028515D01*
X030399Y028565D01*
X030382Y028616D01*
X030369Y028669D01*
X030359Y028722D01*
X030353Y028776D01*
X030351Y028830D01*
X030351Y009330D02*
X030353Y009384D01*
X030359Y009438D01*
X030369Y009491D01*
X030382Y009544D01*
X030399Y009595D01*
X030420Y009645D01*
X030445Y009693D01*
X030473Y009740D01*
X030504Y009784D01*
X030538Y009826D01*
X030575Y009865D01*
X030615Y009902D01*
X030658Y009935D01*
X030703Y009966D01*
X030750Y009993D01*
X030798Y010016D01*
X030849Y010036D01*
X030900Y010053D01*
X030953Y010065D01*
X031006Y010074D01*
X031060Y010079D01*
X031115Y010080D01*
X031169Y010077D01*
X031222Y010070D01*
X031275Y010059D01*
X031328Y010045D01*
X031379Y010027D01*
X031428Y010005D01*
X031476Y009980D01*
X031522Y009951D01*
X031566Y009919D01*
X031607Y009884D01*
X031645Y009846D01*
X031681Y009805D01*
X031714Y009762D01*
X031744Y009717D01*
X031770Y009669D01*
X031793Y009620D01*
X031812Y009569D01*
X031827Y009518D01*
X031839Y009465D01*
X031847Y009411D01*
X031851Y009357D01*
X031851Y009303D01*
X031847Y009249D01*
X031839Y009195D01*
X031827Y009142D01*
X031812Y009091D01*
X031793Y009040D01*
X031770Y008991D01*
X031744Y008943D01*
X031714Y008898D01*
X031681Y008855D01*
X031645Y008814D01*
X031607Y008776D01*
X031566Y008741D01*
X031522Y008709D01*
X031476Y008680D01*
X031428Y008655D01*
X031379Y008633D01*
X031328Y008615D01*
X031275Y008601D01*
X031222Y008590D01*
X031169Y008583D01*
X031115Y008580D01*
X031060Y008581D01*
X031006Y008586D01*
X030953Y008595D01*
X030900Y008607D01*
X030849Y008624D01*
X030798Y008644D01*
X030750Y008667D01*
X030703Y008694D01*
X030658Y008725D01*
X030615Y008758D01*
X030575Y008795D01*
X030538Y008834D01*
X030504Y008876D01*
X030473Y008920D01*
X030445Y008967D01*
X030420Y009015D01*
X030399Y009065D01*
X030382Y009116D01*
X030369Y009169D01*
X030359Y009222D01*
X030353Y009276D01*
X030351Y009330D01*
M02*
