%
M48
M72
T01C0.0200
T02C0.0315
T03C0.0394
T04C0.0400
T05C0.0630
T06C0.0866
T07C0.1500
%
T01
X16301Y20830
X16301Y24030
T02
X5054Y24103
X5054Y23103
X5054Y22103
X5054Y21103
X5054Y20103
X5054Y19103
X2054Y19103
X2054Y20103
X2054Y21103
X2054Y22103
X2054Y23103
X2054Y24103
X2054Y25103
X2054Y26103
X5054Y26103
X5054Y25103
X28189Y25076
X28189Y24076
X28189Y23076
X28189Y22076
X28189Y21076
X28189Y20076
X28189Y19076
X31189Y19076
X31189Y20076
X31189Y21076
X31189Y22076
X31189Y23076
X31189Y24076
X31189Y25076
X31189Y26076
X28189Y26076
T03
X26101Y26130
X26101Y25130
X26101Y24130
X26101Y23130
X26101Y22130
X26101Y21130
X26101Y20130
X26101Y19130
X23228Y16800
X23297Y15093
X23291Y13495
X19354Y13495
X18710Y12263
X17529Y13654
X15891Y13706
X14773Y12263
X13511Y12788
X16601Y10630
X17601Y10630
X19360Y15093
X19291Y16800
X17529Y17591
X15891Y17643
X13399Y16956
X11038Y19130
X11038Y20130
X11038Y21130
X11038Y22130
X11038Y23130
X11038Y24130
X11038Y25130
X11038Y26130
X7101Y26130
X7101Y25130
X7101Y24130
X7101Y23130
X7101Y22130
X7101Y21130
X7101Y20130
X7101Y19130
X9462Y16956
X9574Y12788
X22164Y19130
X22164Y20130
X22164Y21130
X22164Y22130
X22164Y23130
X22164Y24130
X22164Y25130
X22164Y26130
T04
X13051Y15330
X13051Y14330
X11551Y14330
X11551Y15330
X10051Y15330
X10051Y14330
X7351Y13380
X6351Y13380
X5351Y13380
X23101Y8630
X26851Y8630
T05
X7382Y7630
X7382Y9598
X9351Y9598
X11319Y9598
X11319Y7630
X9351Y7630
T06
X14601Y8630
X18601Y8630
T07
X31101Y9330
X31101Y28830
X2601Y28830
X2601Y9330
M30
