G75*
G70*
%OFA0B0*%
%FSLAX24Y24*%
%IPPOS*%
%LPD*%
%AMOC8*
5,1,8,0,0,1.08239X$1,22.5*
%
%ADD10C,0.1580*%
%ADD11R,0.1025X0.1025*%
%ADD12C,0.1025*%
%ADD13C,0.1346*%
%ADD14C,0.0674*%
%ADD15C,0.0820*%
%ADD16C,0.0595*%
%ADD17C,0.0440*%
D10*
X002601Y009330D03*
X002601Y028830D03*
X031101Y028830D03*
X031101Y009330D03*
D11*
X011319Y009598D03*
X009351Y007630D03*
X007382Y009598D03*
D12*
X007382Y007630D03*
X009351Y009598D03*
X011319Y007630D03*
D13*
X014601Y008630D03*
X018601Y008630D03*
D14*
X017601Y010630D03*
X016601Y010630D03*
X014773Y012263D03*
X013511Y012788D03*
X015891Y013706D03*
X017529Y013654D03*
X018710Y012263D03*
X019354Y013495D03*
X019360Y015093D03*
X019291Y016800D03*
X017529Y017591D03*
X015891Y017643D03*
X013399Y016956D03*
X011038Y019130D03*
X011038Y020130D03*
X011038Y021130D03*
X011038Y022130D03*
X011038Y023130D03*
X011038Y024130D03*
X011038Y025130D03*
X011038Y026130D03*
X007101Y026130D03*
X007101Y025130D03*
X007101Y024130D03*
X007101Y023130D03*
X007101Y022130D03*
X007101Y021130D03*
X007101Y020130D03*
X007101Y019130D03*
X009462Y016956D03*
X009574Y012788D03*
X022164Y019130D03*
X022164Y020130D03*
X022164Y021130D03*
X022164Y022130D03*
X022164Y023130D03*
X022164Y024130D03*
X022164Y025130D03*
X022164Y026130D03*
X026101Y026130D03*
X026101Y025130D03*
X026101Y024130D03*
X026101Y023130D03*
X026101Y022130D03*
X026101Y021130D03*
X026101Y020130D03*
X026101Y019130D03*
X023228Y016800D03*
X023297Y015093D03*
X023291Y013495D03*
D15*
X023101Y008630D03*
X026851Y008630D03*
X013051Y014330D03*
X013051Y015330D03*
X011551Y015330D03*
X011551Y014330D03*
X010051Y014330D03*
X010051Y015330D03*
X007351Y013380D03*
X006351Y013380D03*
X005351Y013380D03*
D16*
X005054Y019103D03*
X005054Y020103D03*
X005054Y021103D03*
X005054Y022103D03*
X005054Y023103D03*
X005054Y024103D03*
X005054Y025103D03*
X005054Y026103D03*
X002054Y026103D03*
X002054Y025103D03*
X002054Y024103D03*
X002054Y023103D03*
X002054Y022103D03*
X002054Y021103D03*
X002054Y020103D03*
X002054Y019103D03*
X028189Y019076D03*
X028189Y020076D03*
X028189Y021076D03*
X028189Y022076D03*
X028189Y023076D03*
X028189Y024076D03*
X028189Y025076D03*
X028189Y026076D03*
X031189Y026076D03*
X031189Y025076D03*
X031189Y024076D03*
X031189Y023076D03*
X031189Y022076D03*
X031189Y021076D03*
X031189Y020076D03*
X031189Y019076D03*
D17*
X016301Y020830D03*
X016301Y024030D03*
M02*
