G75*
G70*
%OFA0B0*%
%FSLAX24Y24*%
%IPPOS*%
%LPD*%
%AMOC8*
5,1,8,0,0,1.08239X$1,22.5*
%
%ADD10R,0.0945X0.0945*%
%ADD11C,0.0945*%
%ADD12C,0.1266*%
%ADD13C,0.0594*%
%ADD14C,0.0740*%
%ADD15C,0.0515*%
%ADD16C,0.0135*%
%ADD17C,0.0100*%
%ADD18R,0.0396X0.0396*%
%ADD19C,0.0080*%
%ADD20C,0.0240*%
%ADD21C,0.0396*%
%ADD22C,0.0320*%
%ADD23C,0.0400*%
%ADD24C,0.0160*%
D10*
X005850Y008125D03*
X003881Y010094D03*
X007819Y010094D03*
D11*
X003881Y008125D03*
X005850Y010094D03*
X007819Y008125D03*
D12*
X014600Y008625D03*
X018600Y008625D03*
D13*
X017600Y010625D03*
X016600Y010625D03*
X016864Y012629D03*
X015265Y012635D03*
X018570Y012698D03*
X018570Y016635D03*
X016864Y016566D03*
X015265Y016572D03*
X014033Y017216D03*
X015425Y018397D03*
X015476Y020034D03*
X014033Y021153D03*
X014559Y022414D03*
X014559Y026351D03*
X011037Y026625D03*
X011037Y027625D03*
X011037Y025625D03*
X011037Y024625D03*
X011037Y023625D03*
X011037Y022625D03*
X011037Y021625D03*
X011037Y020625D03*
X007100Y020625D03*
X007100Y021625D03*
X007100Y022625D03*
X007100Y023625D03*
X007100Y024625D03*
X007100Y025625D03*
X007100Y026625D03*
X007100Y027625D03*
X007100Y030625D03*
X007100Y031625D03*
X007100Y032625D03*
X007100Y033625D03*
X007100Y034625D03*
X007100Y035625D03*
X007100Y036625D03*
X007100Y037625D03*
X011037Y037625D03*
X011037Y036625D03*
X011037Y035625D03*
X011037Y034625D03*
X011037Y033625D03*
X011037Y032625D03*
X011037Y031625D03*
X011037Y030625D03*
X018726Y026464D03*
X018726Y022527D03*
X019413Y020034D03*
X019362Y018397D03*
X022163Y020625D03*
X022163Y021625D03*
X022163Y022625D03*
X022163Y023625D03*
X022163Y024625D03*
X022163Y025625D03*
X022163Y026625D03*
X022163Y027625D03*
X022163Y030625D03*
X022163Y031625D03*
X022163Y032625D03*
X022163Y033625D03*
X022163Y034625D03*
X022163Y035625D03*
X022163Y036625D03*
X022163Y037625D03*
X026100Y037625D03*
X026100Y036625D03*
X026100Y035625D03*
X026100Y034625D03*
X026100Y033625D03*
X026100Y032625D03*
X026100Y031625D03*
X026100Y030625D03*
X026100Y027625D03*
X026100Y026625D03*
X026100Y025625D03*
X026100Y024625D03*
X026100Y023625D03*
X026100Y022625D03*
X026100Y021625D03*
X026100Y020625D03*
D14*
X017100Y022875D03*
X016100Y022875D03*
X016100Y024375D03*
X017100Y024375D03*
X017100Y025875D03*
X016100Y025875D03*
X006350Y013875D03*
X005350Y013875D03*
X004350Y013875D03*
X025600Y008625D03*
X028850Y008625D03*
D15*
X028137Y020729D03*
X028137Y021729D03*
X028137Y022729D03*
X028137Y023729D03*
X028137Y024729D03*
X028137Y025729D03*
X028137Y026729D03*
X028137Y027729D03*
X028189Y030572D03*
X028189Y031572D03*
X028189Y032572D03*
X028189Y033572D03*
X028189Y034572D03*
X028189Y035572D03*
X028189Y036572D03*
X028189Y037572D03*
X031189Y037572D03*
X031189Y036572D03*
X031189Y035572D03*
X031189Y034572D03*
X031189Y033572D03*
X031189Y032572D03*
X031189Y031572D03*
X031189Y030572D03*
X031137Y027729D03*
X031137Y026729D03*
X031137Y025729D03*
X031137Y024729D03*
X031137Y023729D03*
X031137Y022729D03*
X031137Y021729D03*
X031137Y020729D03*
X005045Y020588D03*
X005045Y021588D03*
X005045Y022588D03*
X005045Y023588D03*
X005045Y024588D03*
X005045Y025588D03*
X005045Y026588D03*
X005045Y027588D03*
X005053Y030598D03*
X005053Y031598D03*
X005053Y032598D03*
X005053Y033598D03*
X005053Y034598D03*
X005053Y035598D03*
X005053Y036598D03*
X005053Y037598D03*
X002053Y037598D03*
X002053Y036598D03*
X002053Y035598D03*
X002053Y034598D03*
X002053Y033598D03*
X002053Y032598D03*
X002053Y031598D03*
X002053Y030598D03*
X002045Y027588D03*
X002045Y026588D03*
X002045Y025588D03*
X002045Y024588D03*
X002045Y023588D03*
X002045Y022588D03*
X002045Y021588D03*
X002045Y020588D03*
D16*
X014452Y033762D02*
X014468Y033762D01*
X014452Y033762D02*
X014452Y034028D01*
X014468Y034028D01*
X014468Y033762D01*
X014468Y033896D02*
X014452Y033896D01*
X014702Y033762D02*
X014718Y033762D01*
X014702Y033762D02*
X014702Y034028D01*
X014718Y034028D01*
X014718Y033762D01*
X014718Y033896D02*
X014702Y033896D01*
X014952Y033762D02*
X014968Y033762D01*
X014952Y033762D02*
X014952Y034028D01*
X014968Y034028D01*
X014968Y033762D01*
X014968Y033896D02*
X014952Y033896D01*
X015202Y033762D02*
X015218Y033762D01*
X015202Y033762D02*
X015202Y034028D01*
X015218Y034028D01*
X015218Y033762D01*
X015218Y033896D02*
X015202Y033896D01*
X015452Y033762D02*
X015468Y033762D01*
X015452Y033762D02*
X015452Y034028D01*
X015468Y034028D01*
X015468Y033762D01*
X015468Y033896D02*
X015452Y033896D01*
X015702Y033762D02*
X015718Y033762D01*
X015702Y033762D02*
X015702Y034028D01*
X015718Y034028D01*
X015718Y033762D01*
X015718Y033896D02*
X015702Y033896D01*
X015952Y033762D02*
X015968Y033762D01*
X015952Y033762D02*
X015952Y034028D01*
X015968Y034028D01*
X015968Y033762D01*
X015968Y033896D02*
X015952Y033896D01*
X016202Y033762D02*
X016218Y033762D01*
X016202Y033762D02*
X016202Y034028D01*
X016218Y034028D01*
X016218Y033762D01*
X016218Y033896D02*
X016202Y033896D01*
X016452Y033762D02*
X016468Y033762D01*
X016452Y033762D02*
X016452Y034028D01*
X016468Y034028D01*
X016468Y033762D01*
X016468Y033896D02*
X016452Y033896D01*
X016702Y033762D02*
X016718Y033762D01*
X016702Y033762D02*
X016702Y034028D01*
X016718Y034028D01*
X016718Y033762D01*
X016718Y033896D02*
X016702Y033896D01*
X016952Y033762D02*
X016968Y033762D01*
X016952Y033762D02*
X016952Y034028D01*
X016968Y034028D01*
X016968Y033762D01*
X016968Y033896D02*
X016952Y033896D01*
X017202Y033762D02*
X017218Y033762D01*
X017202Y033762D02*
X017202Y034028D01*
X017218Y034028D01*
X017218Y033762D01*
X017218Y033896D02*
X017202Y033896D01*
X017452Y033762D02*
X017468Y033762D01*
X017452Y033762D02*
X017452Y034028D01*
X017468Y034028D01*
X017468Y033762D01*
X017468Y033896D02*
X017452Y033896D01*
X017702Y033762D02*
X017718Y033762D01*
X017702Y033762D02*
X017702Y034028D01*
X017718Y034028D01*
X017718Y033762D01*
X017718Y033896D02*
X017702Y033896D01*
X017952Y033762D02*
X017968Y033762D01*
X017952Y033762D02*
X017952Y034028D01*
X017968Y034028D01*
X017968Y033762D01*
X017968Y033896D02*
X017952Y033896D01*
X018202Y033762D02*
X018218Y033762D01*
X018202Y033762D02*
X018202Y034028D01*
X018218Y034028D01*
X018218Y033762D01*
X018218Y033896D02*
X018202Y033896D01*
X018452Y033762D02*
X018468Y033762D01*
X018452Y033762D02*
X018452Y034028D01*
X018468Y034028D01*
X018468Y033762D01*
X018468Y033896D02*
X018452Y033896D01*
X018702Y033762D02*
X018718Y033762D01*
X018702Y033762D02*
X018702Y034028D01*
X018718Y034028D01*
X018718Y033762D01*
X018718Y033896D02*
X018702Y033896D01*
X018718Y034262D02*
X018702Y034262D01*
X018702Y034528D01*
X018718Y034528D01*
X018718Y034262D01*
X018718Y034396D02*
X018702Y034396D01*
X018468Y034262D02*
X018452Y034262D01*
X018452Y034528D01*
X018468Y034528D01*
X018468Y034262D01*
X018468Y034396D02*
X018452Y034396D01*
X018218Y034262D02*
X018202Y034262D01*
X018202Y034528D01*
X018218Y034528D01*
X018218Y034262D01*
X018218Y034396D02*
X018202Y034396D01*
X017968Y034262D02*
X017952Y034262D01*
X017952Y034528D01*
X017968Y034528D01*
X017968Y034262D01*
X017968Y034396D02*
X017952Y034396D01*
X017718Y034262D02*
X017702Y034262D01*
X017702Y034528D01*
X017718Y034528D01*
X017718Y034262D01*
X017718Y034396D02*
X017702Y034396D01*
X017468Y034262D02*
X017452Y034262D01*
X017452Y034528D01*
X017468Y034528D01*
X017468Y034262D01*
X017468Y034396D02*
X017452Y034396D01*
X017218Y034262D02*
X017202Y034262D01*
X017202Y034528D01*
X017218Y034528D01*
X017218Y034262D01*
X017218Y034396D02*
X017202Y034396D01*
X016968Y034262D02*
X016952Y034262D01*
X016952Y034528D01*
X016968Y034528D01*
X016968Y034262D01*
X016968Y034396D02*
X016952Y034396D01*
X016718Y034262D02*
X016702Y034262D01*
X016702Y034528D01*
X016718Y034528D01*
X016718Y034262D01*
X016718Y034396D02*
X016702Y034396D01*
X016468Y034262D02*
X016452Y034262D01*
X016452Y034528D01*
X016468Y034528D01*
X016468Y034262D01*
X016468Y034396D02*
X016452Y034396D01*
X016218Y034262D02*
X016202Y034262D01*
X016202Y034528D01*
X016218Y034528D01*
X016218Y034262D01*
X016218Y034396D02*
X016202Y034396D01*
X015968Y034262D02*
X015952Y034262D01*
X015952Y034528D01*
X015968Y034528D01*
X015968Y034262D01*
X015968Y034396D02*
X015952Y034396D01*
X015718Y034262D02*
X015702Y034262D01*
X015702Y034528D01*
X015718Y034528D01*
X015718Y034262D01*
X015718Y034396D02*
X015702Y034396D01*
X015468Y034262D02*
X015452Y034262D01*
X015452Y034528D01*
X015468Y034528D01*
X015468Y034262D01*
X015468Y034396D02*
X015452Y034396D01*
X015218Y034262D02*
X015202Y034262D01*
X015202Y034528D01*
X015218Y034528D01*
X015218Y034262D01*
X015218Y034396D02*
X015202Y034396D01*
X014968Y034262D02*
X014952Y034262D01*
X014952Y034528D01*
X014968Y034528D01*
X014968Y034262D01*
X014968Y034396D02*
X014952Y034396D01*
X014718Y034262D02*
X014702Y034262D01*
X014702Y034528D01*
X014718Y034528D01*
X014718Y034262D01*
X014718Y034396D02*
X014702Y034396D01*
X014468Y034262D02*
X014452Y034262D01*
X014452Y034528D01*
X014468Y034528D01*
X014468Y034262D01*
X014468Y034396D02*
X014452Y034396D01*
D17*
X014460Y034395D02*
X014430Y034445D01*
X014460Y034395D02*
X014460Y033895D01*
X014330Y033895D01*
X014100Y034125D01*
X014710Y033895D02*
X014710Y033485D01*
X014500Y033275D01*
X014050Y033275D01*
X012500Y034825D01*
X012500Y036275D01*
X011600Y037175D01*
X005300Y037175D01*
X003200Y035075D01*
X003200Y031675D01*
X004300Y030575D01*
X005030Y030575D01*
X005053Y030598D01*
X004400Y031125D02*
X011450Y031125D01*
X011950Y031625D01*
X015500Y031625D01*
X016210Y032335D01*
X016210Y033895D01*
X016450Y033885D02*
X016450Y032225D01*
X016250Y032025D01*
X016250Y031425D01*
X016450Y031225D01*
X017750Y031225D01*
X018250Y030725D01*
X020950Y030725D01*
X021350Y031125D01*
X022600Y031125D01*
X024700Y028975D01*
X025600Y028975D01*
X024550Y029475D02*
X028700Y029475D01*
X029650Y030425D01*
X029650Y035875D01*
X028950Y036575D01*
X028192Y036575D01*
X028189Y036572D01*
X028189Y035572D02*
X028285Y035475D01*
X028800Y035475D01*
X029400Y034875D01*
X029400Y030475D01*
X028600Y029675D01*
X024650Y029675D01*
X023200Y031225D01*
X023200Y032625D01*
X022650Y033125D01*
X021900Y033125D01*
X021650Y032875D01*
X021650Y032175D01*
X020700Y031175D01*
X018500Y031175D01*
X017210Y032465D01*
X017210Y033895D01*
X017460Y033895D02*
X017460Y032565D01*
X018600Y031425D01*
X020600Y031425D01*
X021350Y032225D01*
X021350Y033675D01*
X021700Y034075D01*
X022900Y034075D01*
X023450Y033525D01*
X023450Y031275D01*
X024800Y029875D01*
X028500Y029875D01*
X029150Y030525D01*
X029150Y034125D01*
X028700Y034575D01*
X028192Y034575D01*
X028189Y034572D01*
X028189Y033572D02*
X028285Y033475D01*
X028450Y033475D01*
X028900Y033025D01*
X028900Y030575D01*
X028400Y030075D01*
X024950Y030075D01*
X023700Y031375D01*
X023700Y034375D01*
X022850Y035175D01*
X021600Y035175D01*
X021100Y034675D01*
X021100Y032325D01*
X020500Y031675D01*
X018750Y031675D01*
X017710Y032715D01*
X017710Y033895D01*
X017960Y033895D02*
X017960Y032815D01*
X018850Y031925D01*
X020400Y031925D01*
X020850Y032375D01*
X020850Y035275D01*
X021650Y036075D01*
X023000Y036075D01*
X024000Y035125D01*
X024000Y033825D01*
X025100Y032675D01*
X026050Y032675D01*
X026100Y032625D01*
X026100Y033525D02*
X024950Y033525D01*
X024350Y034125D01*
X026100Y033525D02*
X026200Y033625D01*
X027200Y035275D02*
X027200Y031272D01*
X026500Y030572D01*
X026153Y030572D01*
X026100Y030625D01*
X024550Y029475D02*
X022950Y031125D01*
X022950Y031575D01*
X022450Y032125D01*
X022000Y032125D01*
X020850Y030975D01*
X018350Y030975D01*
X016960Y032365D01*
X016960Y033895D01*
X016710Y033895D02*
X016700Y033885D01*
X016700Y031775D01*
X016650Y031725D01*
X015960Y032485D02*
X015400Y031925D01*
X011550Y031925D01*
X011350Y032125D01*
X005950Y032125D01*
X005650Y032425D01*
X005650Y036275D01*
X005300Y036625D01*
X005080Y036625D01*
X005053Y036598D01*
X005053Y035598D02*
X003750Y034295D01*
X003750Y031775D01*
X004400Y031125D01*
X006250Y032975D02*
X006600Y032625D01*
X007100Y032625D01*
X007650Y033075D02*
X007100Y033625D01*
X007650Y034075D02*
X007100Y034625D01*
X007650Y034075D02*
X012100Y034075D01*
X013750Y032425D01*
X015100Y032425D01*
X015460Y032785D01*
X015460Y033895D01*
X015710Y033895D02*
X015710Y032635D01*
X015250Y032175D01*
X013550Y032175D01*
X012650Y033075D01*
X007650Y033075D01*
X007100Y031625D02*
X007150Y031575D01*
X008350Y031575D01*
X008500Y031725D01*
X006250Y032975D02*
X006250Y035575D01*
X006750Y036075D01*
X011400Y036075D01*
X012250Y035225D01*
X012250Y034725D01*
X014050Y032925D01*
X014850Y032925D01*
X014960Y033035D01*
X014960Y033895D01*
X015210Y033895D02*
X015210Y032935D01*
X014950Y032675D01*
X013900Y032675D01*
X011950Y034625D01*
X011950Y034825D01*
X011650Y035125D01*
X009050Y035125D01*
X008500Y034575D01*
X007100Y037625D02*
X007700Y038225D01*
X011950Y038225D01*
X012810Y037315D02*
X012800Y037175D01*
X013900Y036075D01*
X014350Y036075D01*
X014700Y035725D01*
X014700Y034405D01*
X014710Y034395D01*
X014950Y034405D02*
X014950Y035875D01*
X014500Y036325D01*
X014100Y036325D01*
X013300Y037125D01*
X013310Y037315D01*
X013810Y037315D02*
X013800Y037125D01*
X014350Y036575D01*
X014650Y036575D01*
X015200Y036025D01*
X015200Y034405D01*
X015210Y034395D01*
X015450Y034405D02*
X015450Y036175D01*
X014800Y036825D01*
X014600Y036825D01*
X014300Y037125D01*
X014310Y037315D01*
X014800Y037325D02*
X014810Y037315D01*
X014800Y037325D02*
X014800Y037175D01*
X015700Y036275D01*
X015700Y034405D01*
X015710Y034395D01*
X015950Y034405D02*
X015950Y036475D01*
X015300Y037125D01*
X015300Y037225D01*
X015310Y037315D01*
X015800Y037275D02*
X015800Y037025D01*
X016200Y036625D01*
X016200Y034405D01*
X016210Y034395D01*
X016450Y034405D02*
X016450Y036775D01*
X016300Y036925D01*
X016300Y037275D01*
X016310Y037315D01*
X015810Y037315D02*
X015800Y037275D01*
X016700Y036775D02*
X016800Y036875D01*
X016800Y037075D01*
X016810Y037315D01*
X017310Y037315D02*
X017300Y037075D01*
X017300Y037025D01*
X016950Y036675D01*
X016950Y034405D01*
X016960Y034395D01*
X017200Y034405D02*
X017200Y036525D01*
X017800Y037125D01*
X017810Y037315D01*
X018310Y037315D02*
X018300Y037075D01*
X017650Y036425D01*
X017450Y036175D01*
X017450Y034405D01*
X017460Y034395D01*
X017700Y034405D02*
X017700Y036125D01*
X018800Y037075D01*
X018810Y037315D01*
X019310Y037315D02*
X019300Y037125D01*
X019000Y036825D01*
X017950Y035875D01*
X017950Y034405D01*
X017960Y034395D01*
X018200Y034405D02*
X018200Y035675D01*
X018250Y035725D01*
X019800Y037125D01*
X019810Y037315D01*
X019850Y036825D02*
X020300Y037075D01*
X020310Y037315D01*
X019850Y036825D02*
X018450Y035525D01*
X018450Y034405D01*
X018460Y034395D01*
X018210Y034395D02*
X018200Y034405D01*
X018710Y034395D02*
X018930Y034395D01*
X019150Y034175D01*
X018710Y034395D02*
X018710Y033895D01*
X018460Y033895D02*
X018460Y033015D01*
X019100Y032375D01*
X020150Y032375D01*
X020350Y032575D01*
X020350Y035525D01*
X021400Y036575D01*
X021400Y038075D01*
X021750Y038425D01*
X023850Y038425D01*
X024350Y037925D01*
X024350Y036575D01*
X023900Y036775D02*
X023900Y036275D01*
X024050Y036125D01*
X026350Y036125D01*
X027200Y035275D01*
X025600Y037125D02*
X026100Y037625D01*
X023900Y036775D02*
X023500Y037175D01*
X021900Y037175D01*
X021650Y036925D01*
X021650Y036475D01*
X020600Y035425D01*
X020600Y032475D01*
X020300Y032175D01*
X018950Y032175D01*
X018210Y032915D01*
X018210Y033895D01*
X017710Y034395D02*
X017700Y034405D01*
X017210Y034395D02*
X017200Y034405D01*
X016710Y034395D02*
X016700Y034405D01*
X016700Y036775D01*
X016450Y034405D02*
X016460Y034395D01*
X016460Y033895D02*
X016450Y033885D01*
X015960Y033895D02*
X015960Y032485D01*
X015450Y031175D02*
X015050Y030775D01*
X011950Y030775D01*
X014960Y034395D02*
X014950Y034405D01*
X015450Y034405D02*
X015460Y034395D01*
X015950Y034405D02*
X015960Y034395D01*
D18*
X016650Y031725D03*
X015450Y031175D03*
X011950Y030775D03*
X008500Y031725D03*
X008500Y034575D03*
X011950Y038225D03*
X012810Y037315D03*
X013310Y037315D03*
X013810Y037315D03*
X014310Y037315D03*
X014810Y037315D03*
X015310Y037315D03*
X015810Y037315D03*
X016310Y037315D03*
X016810Y037315D03*
X017310Y037315D03*
X017810Y037315D03*
X018310Y037315D03*
X018810Y037315D03*
X019310Y037315D03*
X019810Y037315D03*
X020310Y037315D03*
X024350Y036575D03*
X025600Y037125D03*
X024350Y034125D03*
X025600Y028975D03*
D19*
X026100Y036625D02*
X026300Y036625D01*
D20*
X016100Y022875D02*
X016150Y022825D01*
X016150Y022075D01*
X018200Y020025D01*
X019404Y020025D01*
X019413Y020034D01*
X018570Y016635D02*
X016795Y016635D01*
X015328Y016635D01*
X015328Y018300D01*
X015425Y018397D01*
X015476Y020034D02*
X015450Y020060D01*
X015450Y020525D01*
X014822Y021153D01*
X014033Y021153D01*
X014033Y017216D02*
X014100Y017149D01*
X014100Y016875D01*
X014403Y016572D01*
X015265Y016572D01*
X015328Y016635D01*
X018570Y012698D02*
X018643Y012625D01*
X005350Y013875D02*
X005350Y014125D01*
D21*
X014500Y029325D03*
X014100Y034125D03*
X019150Y034175D03*
D22*
X016795Y016635D02*
X016864Y016566D01*
X015025Y012875D02*
X015265Y012635D01*
X015025Y012875D02*
X008850Y012875D01*
X006850Y014875D01*
X006100Y014875D01*
X005350Y014125D01*
X004350Y013875D02*
X003881Y013406D01*
X003881Y010094D01*
X006350Y013875D02*
X007819Y012406D01*
X007819Y010094D01*
X016600Y010625D02*
X016600Y012365D01*
X016864Y012629D01*
X018643Y012625D02*
X019600Y012625D01*
X023600Y008625D01*
X025600Y008625D01*
D23*
X022163Y027625D02*
X022163Y030625D01*
X011037Y030625D02*
X011037Y027625D01*
D24*
X014500Y029325D02*
X015250Y028575D01*
X015250Y026725D01*
X016100Y025875D01*
M02*
