G75*
G70*
%OFA0B0*%
%FSLAX24Y24*%
%IPPOS*%
%LPD*%
%AMOC8*
5,1,8,0,0,1.08239X$1,22.5*
%
%ADD10R,0.1025X0.1025*%
%ADD11C,0.1025*%
%ADD12C,0.1346*%
%ADD13C,0.0674*%
%ADD14C,0.0820*%
%ADD15C,0.0595*%
%ADD16C,0.0207*%
%ADD17R,0.0476X0.0476*%
%ADD18C,0.0476*%
D10*
X005850Y008125D03*
X003881Y010094D03*
X007819Y010094D03*
D11*
X003881Y008125D03*
X005850Y010094D03*
X007819Y008125D03*
D12*
X014600Y008625D03*
X018600Y008625D03*
D13*
X017600Y010625D03*
X016600Y010625D03*
X016864Y012629D03*
X015265Y012635D03*
X018570Y012698D03*
X018570Y016635D03*
X016864Y016566D03*
X015265Y016572D03*
X014033Y017216D03*
X015425Y018397D03*
X015476Y020034D03*
X014033Y021153D03*
X014559Y022414D03*
X014559Y026351D03*
X011037Y026625D03*
X011037Y027625D03*
X011037Y025625D03*
X011037Y024625D03*
X011037Y023625D03*
X011037Y022625D03*
X011037Y021625D03*
X011037Y020625D03*
X007100Y020625D03*
X007100Y021625D03*
X007100Y022625D03*
X007100Y023625D03*
X007100Y024625D03*
X007100Y025625D03*
X007100Y026625D03*
X007100Y027625D03*
X007100Y030625D03*
X007100Y031625D03*
X007100Y032625D03*
X007100Y033625D03*
X007100Y034625D03*
X007100Y035625D03*
X007100Y036625D03*
X007100Y037625D03*
X011037Y037625D03*
X011037Y036625D03*
X011037Y035625D03*
X011037Y034625D03*
X011037Y033625D03*
X011037Y032625D03*
X011037Y031625D03*
X011037Y030625D03*
X018726Y026464D03*
X018726Y022527D03*
X019413Y020034D03*
X019362Y018397D03*
X022163Y020625D03*
X022163Y021625D03*
X022163Y022625D03*
X022163Y023625D03*
X022163Y024625D03*
X022163Y025625D03*
X022163Y026625D03*
X022163Y027625D03*
X022163Y030625D03*
X022163Y031625D03*
X022163Y032625D03*
X022163Y033625D03*
X022163Y034625D03*
X022163Y035625D03*
X022163Y036625D03*
X022163Y037625D03*
X026100Y037625D03*
X026100Y036625D03*
X026100Y035625D03*
X026100Y034625D03*
X026100Y033625D03*
X026100Y032625D03*
X026100Y031625D03*
X026100Y030625D03*
X026100Y027625D03*
X026100Y026625D03*
X026100Y025625D03*
X026100Y024625D03*
X026100Y023625D03*
X026100Y022625D03*
X026100Y021625D03*
X026100Y020625D03*
D14*
X017100Y022875D03*
X016100Y022875D03*
X016100Y024375D03*
X017100Y024375D03*
X017100Y025875D03*
X016100Y025875D03*
X006350Y013875D03*
X005350Y013875D03*
X004350Y013875D03*
X025600Y008625D03*
X028850Y008625D03*
D15*
X028137Y020729D03*
X028137Y021729D03*
X028137Y022729D03*
X028137Y023729D03*
X028137Y024729D03*
X028137Y025729D03*
X028137Y026729D03*
X028137Y027729D03*
X028189Y030572D03*
X028189Y031572D03*
X028189Y032572D03*
X028189Y033572D03*
X028189Y034572D03*
X028189Y035572D03*
X028189Y036572D03*
X028189Y037572D03*
X031189Y037572D03*
X031189Y036572D03*
X031189Y035572D03*
X031189Y034572D03*
X031189Y033572D03*
X031189Y032572D03*
X031189Y031572D03*
X031189Y030572D03*
X031137Y027729D03*
X031137Y026729D03*
X031137Y025729D03*
X031137Y024729D03*
X031137Y023729D03*
X031137Y022729D03*
X031137Y021729D03*
X031137Y020729D03*
X005045Y020588D03*
X005045Y021588D03*
X005045Y022588D03*
X005045Y023588D03*
X005045Y024588D03*
X005045Y025588D03*
X005045Y026588D03*
X005045Y027588D03*
X005053Y030598D03*
X005053Y031598D03*
X005053Y032598D03*
X005053Y033598D03*
X005053Y034598D03*
X005053Y035598D03*
X005053Y036598D03*
X005053Y037598D03*
X002053Y037598D03*
X002053Y036598D03*
X002053Y035598D03*
X002053Y034598D03*
X002053Y033598D03*
X002053Y032598D03*
X002053Y031598D03*
X002053Y030598D03*
X002045Y027588D03*
X002045Y026588D03*
X002045Y025588D03*
X002045Y024588D03*
X002045Y023588D03*
X002045Y022588D03*
X002045Y021588D03*
X002045Y020588D03*
D16*
X014448Y033758D02*
X014472Y033758D01*
X014448Y033758D02*
X014448Y034032D01*
X014472Y034032D01*
X014472Y033758D01*
X014472Y033964D02*
X014448Y033964D01*
X014698Y033758D02*
X014722Y033758D01*
X014698Y033758D02*
X014698Y034032D01*
X014722Y034032D01*
X014722Y033758D01*
X014722Y033964D02*
X014698Y033964D01*
X014948Y033758D02*
X014972Y033758D01*
X014948Y033758D02*
X014948Y034032D01*
X014972Y034032D01*
X014972Y033758D01*
X014972Y033964D02*
X014948Y033964D01*
X015198Y033758D02*
X015222Y033758D01*
X015198Y033758D02*
X015198Y034032D01*
X015222Y034032D01*
X015222Y033758D01*
X015222Y033964D02*
X015198Y033964D01*
X015448Y033758D02*
X015472Y033758D01*
X015448Y033758D02*
X015448Y034032D01*
X015472Y034032D01*
X015472Y033758D01*
X015472Y033964D02*
X015448Y033964D01*
X015698Y033758D02*
X015722Y033758D01*
X015698Y033758D02*
X015698Y034032D01*
X015722Y034032D01*
X015722Y033758D01*
X015722Y033964D02*
X015698Y033964D01*
X015948Y033758D02*
X015972Y033758D01*
X015948Y033758D02*
X015948Y034032D01*
X015972Y034032D01*
X015972Y033758D01*
X015972Y033964D02*
X015948Y033964D01*
X016198Y033758D02*
X016222Y033758D01*
X016198Y033758D02*
X016198Y034032D01*
X016222Y034032D01*
X016222Y033758D01*
X016222Y033964D02*
X016198Y033964D01*
X016448Y033758D02*
X016472Y033758D01*
X016448Y033758D02*
X016448Y034032D01*
X016472Y034032D01*
X016472Y033758D01*
X016472Y033964D02*
X016448Y033964D01*
X016698Y033758D02*
X016722Y033758D01*
X016698Y033758D02*
X016698Y034032D01*
X016722Y034032D01*
X016722Y033758D01*
X016722Y033964D02*
X016698Y033964D01*
X016948Y033758D02*
X016972Y033758D01*
X016948Y033758D02*
X016948Y034032D01*
X016972Y034032D01*
X016972Y033758D01*
X016972Y033964D02*
X016948Y033964D01*
X017198Y033758D02*
X017222Y033758D01*
X017198Y033758D02*
X017198Y034032D01*
X017222Y034032D01*
X017222Y033758D01*
X017222Y033964D02*
X017198Y033964D01*
X017448Y033758D02*
X017472Y033758D01*
X017448Y033758D02*
X017448Y034032D01*
X017472Y034032D01*
X017472Y033758D01*
X017472Y033964D02*
X017448Y033964D01*
X017698Y033758D02*
X017722Y033758D01*
X017698Y033758D02*
X017698Y034032D01*
X017722Y034032D01*
X017722Y033758D01*
X017722Y033964D02*
X017698Y033964D01*
X017948Y033758D02*
X017972Y033758D01*
X017948Y033758D02*
X017948Y034032D01*
X017972Y034032D01*
X017972Y033758D01*
X017972Y033964D02*
X017948Y033964D01*
X018198Y033758D02*
X018222Y033758D01*
X018198Y033758D02*
X018198Y034032D01*
X018222Y034032D01*
X018222Y033758D01*
X018222Y033964D02*
X018198Y033964D01*
X018448Y033758D02*
X018472Y033758D01*
X018448Y033758D02*
X018448Y034032D01*
X018472Y034032D01*
X018472Y033758D01*
X018472Y033964D02*
X018448Y033964D01*
X018698Y033758D02*
X018722Y033758D01*
X018698Y033758D02*
X018698Y034032D01*
X018722Y034032D01*
X018722Y033758D01*
X018722Y033964D02*
X018698Y033964D01*
X018722Y034258D02*
X018698Y034258D01*
X018698Y034532D01*
X018722Y034532D01*
X018722Y034258D01*
X018722Y034464D02*
X018698Y034464D01*
X018472Y034258D02*
X018448Y034258D01*
X018448Y034532D01*
X018472Y034532D01*
X018472Y034258D01*
X018472Y034464D02*
X018448Y034464D01*
X018222Y034258D02*
X018198Y034258D01*
X018198Y034532D01*
X018222Y034532D01*
X018222Y034258D01*
X018222Y034464D02*
X018198Y034464D01*
X017972Y034258D02*
X017948Y034258D01*
X017948Y034532D01*
X017972Y034532D01*
X017972Y034258D01*
X017972Y034464D02*
X017948Y034464D01*
X017722Y034258D02*
X017698Y034258D01*
X017698Y034532D01*
X017722Y034532D01*
X017722Y034258D01*
X017722Y034464D02*
X017698Y034464D01*
X017472Y034258D02*
X017448Y034258D01*
X017448Y034532D01*
X017472Y034532D01*
X017472Y034258D01*
X017472Y034464D02*
X017448Y034464D01*
X017222Y034258D02*
X017198Y034258D01*
X017198Y034532D01*
X017222Y034532D01*
X017222Y034258D01*
X017222Y034464D02*
X017198Y034464D01*
X016972Y034258D02*
X016948Y034258D01*
X016948Y034532D01*
X016972Y034532D01*
X016972Y034258D01*
X016972Y034464D02*
X016948Y034464D01*
X016722Y034258D02*
X016698Y034258D01*
X016698Y034532D01*
X016722Y034532D01*
X016722Y034258D01*
X016722Y034464D02*
X016698Y034464D01*
X016472Y034258D02*
X016448Y034258D01*
X016448Y034532D01*
X016472Y034532D01*
X016472Y034258D01*
X016472Y034464D02*
X016448Y034464D01*
X016222Y034258D02*
X016198Y034258D01*
X016198Y034532D01*
X016222Y034532D01*
X016222Y034258D01*
X016222Y034464D02*
X016198Y034464D01*
X015972Y034258D02*
X015948Y034258D01*
X015948Y034532D01*
X015972Y034532D01*
X015972Y034258D01*
X015972Y034464D02*
X015948Y034464D01*
X015722Y034258D02*
X015698Y034258D01*
X015698Y034532D01*
X015722Y034532D01*
X015722Y034258D01*
X015722Y034464D02*
X015698Y034464D01*
X015472Y034258D02*
X015448Y034258D01*
X015448Y034532D01*
X015472Y034532D01*
X015472Y034258D01*
X015472Y034464D02*
X015448Y034464D01*
X015222Y034258D02*
X015198Y034258D01*
X015198Y034532D01*
X015222Y034532D01*
X015222Y034258D01*
X015222Y034464D02*
X015198Y034464D01*
X014972Y034258D02*
X014948Y034258D01*
X014948Y034532D01*
X014972Y034532D01*
X014972Y034258D01*
X014972Y034464D02*
X014948Y034464D01*
X014722Y034258D02*
X014698Y034258D01*
X014698Y034532D01*
X014722Y034532D01*
X014722Y034258D01*
X014722Y034464D02*
X014698Y034464D01*
X014472Y034258D02*
X014448Y034258D01*
X014448Y034532D01*
X014472Y034532D01*
X014472Y034258D01*
X014472Y034464D02*
X014448Y034464D01*
D17*
X014310Y037315D03*
X013810Y037315D03*
X013310Y037315D03*
X012810Y037315D03*
X011950Y038225D03*
X014810Y037315D03*
X015310Y037315D03*
X015810Y037315D03*
X016310Y037315D03*
X016810Y037315D03*
X017310Y037315D03*
X017810Y037315D03*
X018310Y037315D03*
X018810Y037315D03*
X019310Y037315D03*
X019810Y037315D03*
X020310Y037315D03*
X024350Y036575D03*
X025600Y037125D03*
X024350Y034125D03*
X025600Y028975D03*
X016650Y031725D03*
X015450Y031175D03*
X011950Y030775D03*
X008500Y031725D03*
X008500Y034575D03*
D18*
X014100Y034125D03*
X014500Y029325D03*
X019150Y034175D03*
M02*
