%
M48
M72
T01C0.0236
T02C0.0315
T03C0.0394
T04C0.0400
T05C0.0630
T06C0.0866
%
T01
X14500Y29325
X15450Y31175
X16650Y31725
X19150Y34175
X19310Y37315
X18810Y37315
X18310Y37315
X17810Y37315
X17310Y37315
X16810Y37315
X16310Y37315
X15810Y37315
X15310Y37315
X14810Y37315
X14310Y37315
X13810Y37315
X13310Y37315
X12810Y37315
X11950Y38225
X14100Y34125
X11950Y30775
X8500Y31725
X8500Y34575
X19810Y37315
X20310Y37315
X24350Y36575
X25600Y37125
X24350Y34125
X25600Y28975
T02
X28137Y27729
X28137Y26729
X28137Y25729
X28137Y24729
X28137Y23729
X28137Y22729
X28137Y21729
X28137Y20729
X31137Y20729
X31137Y21729
X31137Y22729
X31137Y23729
X31137Y24729
X31137Y25729
X31137Y26729
X31137Y27729
X31189Y30572
X31189Y31572
X31189Y32572
X31189Y33572
X31189Y34572
X31189Y35572
X31189Y36572
X31189Y37572
X28189Y37572
X28189Y36572
X28189Y35572
X28189Y34572
X28189Y33572
X28189Y32572
X28189Y31572
X28189Y30572
X5053Y30598
X5053Y31598
X5053Y32598
X5053Y33598
X5053Y34598
X5053Y35598
X5053Y36598
X5053Y37598
X2053Y37598
X2053Y36598
X2053Y35598
X2053Y34598
X2053Y33598
X2053Y32598
X2053Y31598
X2053Y30598
X2045Y27588
X2045Y26588
X2045Y25588
X2045Y24588
X2045Y23588
X2045Y22588
X2045Y21588
X2045Y20588
X5045Y20588
X5045Y21588
X5045Y22588
X5045Y23588
X5045Y24588
X5045Y25588
X5045Y26588
X5045Y27588
T03
X7100Y27625
X7100Y26625
X7100Y25625
X7100Y24625
X7100Y23625
X7100Y22625
X7100Y21625
X7100Y20625
X11037Y20625
X11037Y21625
X11037Y22625
X11037Y23625
X11037Y24625
X11037Y25625
X11037Y26625
X11037Y27625
X11037Y30625
X11037Y31625
X11037Y32625
X11037Y33625
X11037Y34625
X11037Y35625
X11037Y36625
X11037Y37625
X7100Y37625
X7100Y36625
X7100Y35625
X7100Y34625
X7100Y33625
X7100Y32625
X7100Y31625
X7100Y30625
X14559Y26351
X14559Y22414
X14033Y21153
X15476Y20034
X15425Y18397
X14033Y17216
X15265Y16572
X16864Y16566
X18570Y16635
X19362Y18397
X19413Y20034
X18726Y22527
X18726Y26464
X22163Y26625
X22163Y27625
X22163Y25625
X22163Y24625
X22163Y23625
X22163Y22625
X22163Y21625
X22163Y20625
X26100Y20625
X26100Y21625
X26100Y22625
X26100Y23625
X26100Y24625
X26100Y25625
X26100Y26625
X26100Y27625
X26100Y30625
X26100Y31625
X26100Y32625
X26100Y33625
X26100Y34625
X26100Y35625
X26100Y36625
X26100Y37625
X22163Y37625
X22163Y36625
X22163Y35625
X22163Y34625
X22163Y33625
X22163Y32625
X22163Y31625
X22163Y30625
X18570Y12698
X16864Y12629
X16600Y10625
X17600Y10625
X15265Y12635
T04
X16100Y22875
X17100Y22875
X17100Y24375
X16100Y24375
X16100Y25875
X17100Y25875
X6350Y13875
X5350Y13875
X4350Y13875
X25600Y8625
X28850Y8625
T05
X3881Y8125
X3881Y10094
X5850Y10094
X5850Y8125
X7819Y8125
X7819Y10094
T06
X14600Y8625
X18600Y8625
M30
