G75*
G70*
%OFA0B0*%
%FSLAX24Y24*%
%IPPOS*%
%LPD*%
%AMOC8*
5,1,8,0,0,1.08239X$1,22.5*
%
%ADD10R,0.1025X0.1025*%
%ADD11C,0.1025*%
%ADD12C,0.1346*%
%ADD13C,0.0674*%
%ADD14C,0.0820*%
%ADD15C,0.0595*%
%ADD16R,0.0159X0.0533*%
%ADD17C,0.0316*%
%ADD18C,0.0476*%
D10*
X005850Y008125D03*
X003881Y010094D03*
X007819Y010094D03*
D11*
X003881Y008125D03*
X005850Y010094D03*
X007819Y008125D03*
D12*
X014600Y008625D03*
X018600Y008625D03*
D13*
X017600Y010625D03*
X016600Y010625D03*
X016864Y012629D03*
X015265Y012635D03*
X018570Y012698D03*
X018570Y016635D03*
X016864Y016566D03*
X015265Y016572D03*
X014033Y017216D03*
X015425Y018397D03*
X015476Y020034D03*
X014033Y021153D03*
X014559Y022414D03*
X014559Y026351D03*
X011037Y026625D03*
X011037Y027625D03*
X011037Y025625D03*
X011037Y024625D03*
X011037Y023625D03*
X011037Y022625D03*
X011037Y021625D03*
X011037Y020625D03*
X007100Y020625D03*
X007100Y021625D03*
X007100Y022625D03*
X007100Y023625D03*
X007100Y024625D03*
X007100Y025625D03*
X007100Y026625D03*
X007100Y027625D03*
X007100Y030625D03*
X007100Y031625D03*
X007100Y032625D03*
X007100Y033625D03*
X007100Y034625D03*
X007100Y035625D03*
X007100Y036625D03*
X007100Y037625D03*
X011037Y037625D03*
X011037Y036625D03*
X011037Y035625D03*
X011037Y034625D03*
X011037Y033625D03*
X011037Y032625D03*
X011037Y031625D03*
X011037Y030625D03*
X018726Y026464D03*
X018726Y022527D03*
X019413Y020034D03*
X019362Y018397D03*
X022163Y020625D03*
X022163Y021625D03*
X022163Y022625D03*
X022163Y023625D03*
X022163Y024625D03*
X022163Y025625D03*
X022163Y026625D03*
X022163Y027625D03*
X022163Y030625D03*
X022163Y031625D03*
X022163Y032625D03*
X022163Y033625D03*
X022163Y034625D03*
X022163Y035625D03*
X022163Y036625D03*
X022163Y037625D03*
X026100Y037625D03*
X026100Y036625D03*
X026100Y035625D03*
X026100Y034625D03*
X026100Y033625D03*
X026100Y032625D03*
X026100Y031625D03*
X026100Y030625D03*
X026100Y027625D03*
X026100Y026625D03*
X026100Y025625D03*
X026100Y024625D03*
X026100Y023625D03*
X026100Y022625D03*
X026100Y021625D03*
X026100Y020625D03*
D14*
X017100Y022875D03*
X016100Y022875D03*
X016100Y024375D03*
X017100Y024375D03*
X017100Y025875D03*
X016100Y025875D03*
X006350Y013875D03*
X005350Y013875D03*
X004350Y013875D03*
X025600Y008625D03*
X028850Y008625D03*
D15*
X028137Y020729D03*
X028137Y021729D03*
X028137Y022729D03*
X028137Y023729D03*
X028137Y024729D03*
X028137Y025729D03*
X028137Y026729D03*
X028137Y027729D03*
X028189Y030572D03*
X028189Y031572D03*
X028189Y032572D03*
X028189Y033572D03*
X028189Y034572D03*
X028189Y035572D03*
X028189Y036572D03*
X028189Y037572D03*
X031189Y037572D03*
X031189Y036572D03*
X031189Y035572D03*
X031189Y034572D03*
X031189Y033572D03*
X031189Y032572D03*
X031189Y031572D03*
X031189Y030572D03*
X031137Y027729D03*
X031137Y026729D03*
X031137Y025729D03*
X031137Y024729D03*
X031137Y023729D03*
X031137Y022729D03*
X031137Y021729D03*
X031137Y020729D03*
X005045Y020588D03*
X005045Y021588D03*
X005045Y022588D03*
X005045Y023588D03*
X005045Y024588D03*
X005045Y025588D03*
X005045Y026588D03*
X005045Y027588D03*
X005053Y030598D03*
X005053Y031598D03*
X005053Y032598D03*
X005053Y033598D03*
X005053Y034598D03*
X005053Y035598D03*
X005053Y036598D03*
X005053Y037598D03*
X002053Y037598D03*
X002053Y036598D03*
X002053Y035598D03*
X002053Y034598D03*
X002053Y033598D03*
X002053Y032598D03*
X002053Y031598D03*
X002053Y030598D03*
X002045Y027588D03*
X002045Y026588D03*
X002045Y025588D03*
X002045Y024588D03*
X002045Y023588D03*
X002045Y022588D03*
X002045Y021588D03*
X002045Y020588D03*
D16*
X015040Y033626D03*
X015197Y033626D03*
X015355Y033626D03*
X015512Y033626D03*
X015670Y033626D03*
X015827Y033626D03*
X015985Y033626D03*
X016142Y033626D03*
X016300Y033626D03*
X016457Y033626D03*
X016615Y033626D03*
X016772Y033626D03*
X016930Y033626D03*
X017087Y033626D03*
X017245Y033626D03*
X017402Y033626D03*
X017560Y033626D03*
X017560Y034944D03*
X017402Y034944D03*
X017245Y034944D03*
X017087Y034944D03*
X016930Y034944D03*
X016772Y034944D03*
X016615Y034944D03*
X016457Y034944D03*
X016300Y034944D03*
X016142Y034944D03*
X015985Y034944D03*
X015827Y034944D03*
X015670Y034944D03*
X015512Y034944D03*
X015355Y034944D03*
X015197Y034944D03*
X015040Y034944D03*
D17*
X014745Y034029D03*
X017855Y034541D03*
D18*
X018730Y034955D03*
X018500Y035515D03*
X018000Y036025D03*
X018000Y036525D03*
X018000Y037025D03*
X017800Y037525D03*
X017300Y037525D03*
X016800Y037525D03*
X016300Y037525D03*
X015800Y037525D03*
X015300Y037525D03*
X014810Y037515D03*
X014600Y037025D03*
X014600Y036525D03*
X014600Y036025D03*
X014600Y035525D03*
X014600Y035025D03*
X014050Y033625D03*
X012500Y031325D03*
X019277Y033628D03*
M02*
