G75*
G70*
%OFA0B0*%
%FSLAX24Y24*%
%IPPOS*%
%LPD*%
%AMOC8*
5,1,8,0,0,1.08239X$1,22.5*
%
%ADD10R,0.0945X0.0945*%
%ADD11C,0.0945*%
%ADD12C,0.1266*%
%ADD13C,0.0594*%
%ADD14C,0.0740*%
%ADD15C,0.0515*%
%ADD16R,0.0079X0.0453*%
%ADD17C,0.0080*%
%ADD18C,0.0240*%
%ADD19C,0.0320*%
%ADD20C,0.0400*%
%ADD21C,0.0396*%
%ADD22C,0.0160*%
D10*
X005850Y008125D03*
X003881Y010094D03*
X007819Y010094D03*
D11*
X003881Y008125D03*
X005850Y010094D03*
X007819Y008125D03*
D12*
X014600Y008625D03*
X018600Y008625D03*
D13*
X017600Y010625D03*
X016600Y010625D03*
X016864Y012629D03*
X015265Y012635D03*
X018570Y012698D03*
X018570Y016635D03*
X016864Y016566D03*
X015265Y016572D03*
X014033Y017216D03*
X015425Y018397D03*
X015476Y020034D03*
X014033Y021153D03*
X014559Y022414D03*
X014559Y026351D03*
X011037Y026625D03*
X011037Y027625D03*
X011037Y025625D03*
X011037Y024625D03*
X011037Y023625D03*
X011037Y022625D03*
X011037Y021625D03*
X011037Y020625D03*
X007100Y020625D03*
X007100Y021625D03*
X007100Y022625D03*
X007100Y023625D03*
X007100Y024625D03*
X007100Y025625D03*
X007100Y026625D03*
X007100Y027625D03*
X007100Y030625D03*
X007100Y031625D03*
X007100Y032625D03*
X007100Y033625D03*
X007100Y034625D03*
X007100Y035625D03*
X007100Y036625D03*
X007100Y037625D03*
X011037Y037625D03*
X011037Y036625D03*
X011037Y035625D03*
X011037Y034625D03*
X011037Y033625D03*
X011037Y032625D03*
X011037Y031625D03*
X011037Y030625D03*
X018726Y026464D03*
X018726Y022527D03*
X019413Y020034D03*
X019362Y018397D03*
X022163Y020625D03*
X022163Y021625D03*
X022163Y022625D03*
X022163Y023625D03*
X022163Y024625D03*
X022163Y025625D03*
X022163Y026625D03*
X022163Y027625D03*
X022163Y030625D03*
X022163Y031625D03*
X022163Y032625D03*
X022163Y033625D03*
X022163Y034625D03*
X022163Y035625D03*
X022163Y036625D03*
X022163Y037625D03*
X026100Y037625D03*
X026100Y036625D03*
X026100Y035625D03*
X026100Y034625D03*
X026100Y033625D03*
X026100Y032625D03*
X026100Y031625D03*
X026100Y030625D03*
X026100Y027625D03*
X026100Y026625D03*
X026100Y025625D03*
X026100Y024625D03*
X026100Y023625D03*
X026100Y022625D03*
X026100Y021625D03*
X026100Y020625D03*
D14*
X017100Y022875D03*
X016100Y022875D03*
X016100Y024375D03*
X017100Y024375D03*
X017100Y025875D03*
X016100Y025875D03*
X006350Y013875D03*
X005350Y013875D03*
X004350Y013875D03*
X025600Y008625D03*
X028850Y008625D03*
D15*
X028137Y020729D03*
X028137Y021729D03*
X028137Y022729D03*
X028137Y023729D03*
X028137Y024729D03*
X028137Y025729D03*
X028137Y026729D03*
X028137Y027729D03*
X028189Y030572D03*
X028189Y031572D03*
X028189Y032572D03*
X028189Y033572D03*
X028189Y034572D03*
X028189Y035572D03*
X028189Y036572D03*
X028189Y037572D03*
X031189Y037572D03*
X031189Y036572D03*
X031189Y035572D03*
X031189Y034572D03*
X031189Y033572D03*
X031189Y032572D03*
X031189Y031572D03*
X031189Y030572D03*
X031137Y027729D03*
X031137Y026729D03*
X031137Y025729D03*
X031137Y024729D03*
X031137Y023729D03*
X031137Y022729D03*
X031137Y021729D03*
X031137Y020729D03*
X005045Y020588D03*
X005045Y021588D03*
X005045Y022588D03*
X005045Y023588D03*
X005045Y024588D03*
X005045Y025588D03*
X005045Y026588D03*
X005045Y027588D03*
X005053Y030598D03*
X005053Y031598D03*
X005053Y032598D03*
X005053Y033598D03*
X005053Y034598D03*
X005053Y035598D03*
X005053Y036598D03*
X005053Y037598D03*
X002053Y037598D03*
X002053Y036598D03*
X002053Y035598D03*
X002053Y034598D03*
X002053Y033598D03*
X002053Y032598D03*
X002053Y031598D03*
X002053Y030598D03*
X002045Y027588D03*
X002045Y026588D03*
X002045Y025588D03*
X002045Y024588D03*
X002045Y023588D03*
X002045Y022588D03*
X002045Y021588D03*
X002045Y020588D03*
D16*
X015040Y033626D03*
X015197Y033626D03*
X015355Y033626D03*
X015512Y033626D03*
X015670Y033626D03*
X015827Y033626D03*
X015985Y033626D03*
X016142Y033626D03*
X016300Y033626D03*
X016457Y033626D03*
X016615Y033626D03*
X016772Y033626D03*
X016930Y033626D03*
X017087Y033626D03*
X017245Y033626D03*
X017402Y033626D03*
X017560Y033626D03*
X017560Y034944D03*
X017402Y034944D03*
X017245Y034944D03*
X017087Y034944D03*
X016930Y034944D03*
X016772Y034944D03*
X016615Y034944D03*
X016457Y034944D03*
X016300Y034944D03*
X016142Y034944D03*
X015985Y034944D03*
X015827Y034944D03*
X015670Y034944D03*
X015512Y034944D03*
X015355Y034944D03*
X015197Y034944D03*
X015040Y034944D03*
D17*
X014648Y034947D01*
X014600Y035025D01*
X014600Y035525D02*
X015000Y035525D01*
X015200Y035325D01*
X015200Y034940D01*
X015197Y034944D01*
X015350Y034942D02*
X015350Y035475D01*
X014800Y036025D01*
X014600Y036025D01*
X014600Y036525D02*
X014700Y036525D01*
X015510Y035715D01*
X015510Y034940D01*
X015512Y034944D01*
X015355Y034944D02*
X015350Y034942D01*
X015670Y034944D02*
X015670Y034927D01*
X015670Y035985D01*
X014640Y037025D01*
X014600Y037025D01*
X014810Y037515D02*
X015830Y036495D01*
X015830Y034935D01*
X015827Y034944D01*
X015985Y034944D02*
X015980Y034902D01*
X015980Y036855D01*
X015300Y037525D01*
X015800Y037525D02*
X015790Y037405D01*
X016140Y037055D01*
X016140Y034930D01*
X016142Y034944D01*
X016300Y034944D02*
X016300Y034968D01*
X016300Y037525D01*
X016800Y037365D02*
X016450Y037015D01*
X016450Y034930D01*
X016457Y034944D01*
X016615Y034944D02*
X016610Y034882D01*
X016610Y036835D01*
X017300Y037525D01*
X016800Y037525D02*
X016800Y037365D01*
X016770Y036485D02*
X017800Y037515D01*
X017800Y037525D01*
X018000Y037025D02*
X017700Y036725D01*
X016930Y035965D01*
X016930Y034948D01*
X016930Y034944D01*
X017087Y034944D02*
X017090Y034840D01*
X017090Y035815D01*
X017800Y036525D01*
X018000Y036525D01*
X018000Y036025D02*
X017690Y036015D01*
X017250Y035565D01*
X017250Y034983D01*
X017245Y034944D01*
X017400Y034940D02*
X017400Y035265D01*
X017650Y035515D01*
X018500Y035515D01*
X018482Y034947D02*
X018730Y034955D01*
X018482Y034947D02*
X017560Y034944D01*
X017402Y034944D02*
X017400Y034940D01*
X016772Y034944D02*
X016770Y034905D01*
X016770Y036485D01*
X015950Y034605D02*
X012560Y034605D01*
X012380Y034785D01*
X012380Y036995D01*
X011130Y038235D01*
X008550Y038225D01*
X007900Y037575D01*
X007150Y037575D01*
X007100Y037625D01*
X007150Y036675D02*
X007100Y036625D01*
X007150Y036675D02*
X007750Y036675D01*
X008200Y037125D01*
X011400Y037125D01*
X012200Y036315D01*
X012200Y034735D01*
X012480Y034445D01*
X015870Y034445D01*
X016140Y034185D01*
X016140Y033670D01*
X016142Y033626D01*
X015990Y033600D02*
X015990Y032465D01*
X015200Y031675D01*
X012180Y031675D01*
X011620Y031125D01*
X010710Y031125D01*
X009790Y030225D01*
X007850Y030225D01*
X007250Y029625D01*
X005250Y029625D01*
X004550Y030325D01*
X004540Y035085D01*
X004780Y035325D01*
X005053Y035598D01*
X005053Y034598D02*
X005053Y034582D01*
X005540Y034095D01*
X005540Y031265D01*
X006800Y030005D01*
X007320Y030005D01*
X007780Y030465D01*
X009690Y030465D01*
X010600Y031325D01*
X010600Y031925D01*
X010780Y032105D01*
X011390Y032105D01*
X011690Y031855D01*
X015140Y031855D01*
X015830Y032545D01*
X015830Y033628D01*
X015827Y033626D01*
X015670Y033626D02*
X015670Y033668D01*
X015670Y032625D01*
X015070Y032015D01*
X011910Y032015D01*
X011500Y032425D01*
X011500Y032875D01*
X011250Y033125D01*
X010800Y033125D01*
X010350Y032675D01*
X010350Y031375D01*
X009700Y030775D01*
X007250Y030775D01*
X007100Y030625D01*
X007100Y031625D02*
X007750Y031625D01*
X009650Y033525D01*
X010250Y034125D01*
X011450Y034125D01*
X011660Y033915D01*
X011660Y032535D01*
X012030Y032185D01*
X015000Y032175D01*
X015520Y032695D01*
X015520Y033560D01*
X015512Y033626D01*
X015355Y033626D02*
X015360Y033713D01*
X015360Y032765D01*
X014920Y032335D01*
X012160Y032335D01*
X011850Y032625D01*
X011850Y034755D01*
X011510Y035095D01*
X010570Y035095D01*
X010250Y034725D01*
X010250Y034375D01*
X009500Y033625D01*
X007100Y033625D01*
X006800Y034125D02*
X006570Y033895D01*
X006570Y032805D01*
X006720Y032655D01*
X006770Y032615D01*
X007100Y032625D01*
X006800Y034125D02*
X009750Y034125D01*
X010050Y034425D01*
X010050Y035725D01*
X010450Y036125D01*
X011600Y036125D01*
X012030Y035695D01*
X012030Y032685D01*
X012190Y032525D01*
X012290Y032515D01*
X014860Y032515D01*
X015200Y032855D01*
X015200Y033610D01*
X015197Y033626D01*
X015040Y033626D02*
X014673Y033628D01*
X014050Y033625D01*
X015985Y033626D02*
X015990Y033600D01*
X016300Y033626D02*
X016300Y033658D01*
X016300Y034285D01*
X015950Y034605D01*
X016460Y034035D02*
X016460Y033625D01*
X016457Y033626D01*
X016610Y033573D02*
X016610Y033935D01*
X016660Y033985D01*
X019390Y033985D01*
X021500Y036095D01*
X021500Y036985D01*
X021700Y037175D01*
X024800Y037175D01*
X025350Y036625D01*
X026100Y036625D01*
X026300Y036625D01*
X026100Y037625D02*
X025350Y038375D01*
X022100Y038375D01*
X021710Y037965D01*
X021710Y037505D01*
X021290Y037085D01*
X021290Y036155D01*
X019290Y034165D01*
X016580Y034165D01*
X016460Y034035D01*
X016772Y033626D02*
X016770Y033593D01*
X016770Y032515D01*
X017400Y031875D01*
X021300Y031875D01*
X021600Y031575D01*
X021600Y031325D01*
X021800Y031125D01*
X026460Y031125D01*
X027750Y032415D01*
X027750Y035125D01*
X027892Y035275D01*
X028189Y035572D01*
X026750Y033975D02*
X026100Y034625D01*
X025500Y034725D02*
X025500Y034225D01*
X026100Y033625D01*
X026350Y033075D02*
X025800Y033075D01*
X024750Y034125D01*
X021800Y034125D01*
X021650Y033975D01*
X021650Y033075D01*
X020960Y032385D01*
X017610Y032385D01*
X017240Y032755D01*
X017240Y033563D01*
X017245Y033626D01*
X017400Y033630D02*
X017400Y032845D01*
X017670Y032565D01*
X020890Y032565D01*
X021450Y033125D01*
X021450Y034675D01*
X021900Y035125D01*
X025100Y035125D01*
X025500Y034725D01*
X026750Y033975D02*
X026750Y033475D01*
X026350Y033075D01*
X026100Y032625D02*
X026050Y032575D01*
X025650Y032575D01*
X025100Y033125D01*
X022000Y033125D01*
X021100Y032225D01*
X017540Y032215D01*
X017090Y032665D01*
X017090Y033555D01*
X017087Y033626D01*
X016930Y033626D02*
X016930Y033677D01*
X016930Y032595D01*
X017460Y032055D01*
X025670Y032055D01*
X026100Y031625D01*
X026040Y031625D01*
X019277Y033628D02*
X018350Y033628D01*
X018340Y033625D01*
X017560Y033626D01*
X017402Y033626D02*
X017400Y033630D01*
D18*
X016100Y022875D02*
X016150Y022825D01*
X016150Y022075D01*
X018200Y020025D01*
X019404Y020025D01*
X019413Y020034D01*
X018570Y016635D02*
X016795Y016635D01*
X015328Y016635D01*
X015328Y018300D01*
X015425Y018397D01*
X015476Y020034D02*
X015450Y020060D01*
X015450Y020525D01*
X014822Y021153D01*
X014033Y021153D01*
X014033Y017216D02*
X014100Y017149D01*
X014100Y016875D01*
X014403Y016572D01*
X015265Y016572D01*
X015328Y016635D01*
X018570Y012698D02*
X018643Y012625D01*
X005350Y013875D02*
X005350Y014125D01*
D19*
X006100Y014875D01*
X006850Y014875D01*
X008850Y012875D01*
X015025Y012875D01*
X015265Y012635D01*
X016600Y012365D02*
X016600Y010625D01*
X016600Y012365D02*
X016864Y012629D01*
X018643Y012625D02*
X019600Y012625D01*
X023600Y008625D01*
X025600Y008625D01*
X016864Y016566D02*
X016795Y016635D01*
X007819Y012406D02*
X007819Y010094D01*
X007819Y012406D02*
X006350Y013875D01*
X004350Y013875D02*
X003881Y013406D01*
X003881Y010094D01*
D20*
X011037Y027625D02*
X011037Y030625D01*
X022163Y030625D02*
X022163Y027625D01*
D21*
X019277Y033628D03*
X018730Y034955D03*
X018500Y035515D03*
X018000Y036025D03*
X018000Y036525D03*
X018000Y037025D03*
X017800Y037525D03*
X017300Y037525D03*
X016800Y037525D03*
X016300Y037525D03*
X015800Y037525D03*
X015300Y037525D03*
X014810Y037515D03*
X014600Y037025D03*
X014600Y036525D03*
X014600Y036025D03*
X014600Y035525D03*
X014600Y035025D03*
X014050Y033625D03*
X012500Y031325D03*
D22*
X015250Y028575D01*
X015250Y026725D01*
X016100Y025875D01*
M02*
